<svg xmlns="http://www.w3.org/2000/svg" width="14" height="17.564" viewBox="0 0 14 17.564">
  <g id="Raggruppa_934" data-name="Raggruppa 934" transform="translate(-44 -266)">
    <g id="Raggruppa_927" data-name="Raggruppa 927" transform="translate(44.123 266.107)">
      <g id="Tracciato_4308" data-name="Tracciato 4308" transform="translate(0.881 11.458)" fill="#505050" stroke-linecap="round" stroke-linejoin="round">
        <path d="M 6.017355442047119 5.498897075653076 C 3.768495559692383 5.498897075653076 2.025985479354858 5.237066745758057 0.8382354974746704 4.720676898956299 C -0.1235645338892937 4.302526950836182 -0.398824542760849 3.842776775360107 -0.4442345201969147 3.754856824874878 L -0.5000045299530029 3.646896839141846 L -0.5000045299530029 3.525386810302734 L -0.5000045299530029 -3.131103539999458e-06 L -0.5000045299530029 -0.5000031590461731 L -4.531249942374416e-06 -0.5000031590461731 L 11.99121570587158 -0.5000031590461731 L 12.49121570587158 -0.5000031590461731 L 12.49121570587158 -3.131103539999458e-06 L 12.49121570587158 3.525386810302734 L 12.49121570587158 3.640676975250244 L 12.44073581695557 3.744316816329956 C 12.37982559204102 3.869396924972534 12.10865592956543 4.309366703033447 11.17689514160156 4.719727039337158 C 10.00295543670654 5.236746788024902 8.267035484313965 5.498897075653076 6.017355442047119 5.498897075653076 Z" stroke="none"/>
        <path d="M -4.76837158203125e-06 -3.337860107421875e-06 L -4.76837158203125e-06 3.525386810302734 C -4.76837158203125e-06 3.525386810302734 0.7611351013183594 4.998897075653076 6.017355442047119 4.998897075653076 C 11.2735652923584 4.998897075653076 11.99121570587158 3.525386810302734 11.99121570587158 3.525386810302734 L 11.99121570587158 -3.337860107421875e-06 L -4.76837158203125e-06 -3.337860107421875e-06 M -4.76837158203125e-06 -1.000003337860107 L 11.99121570587158 -1.000003337860107 C 12.54349517822266 -1.000003337860107 12.99121570587158 -0.5522832870483398 12.99121570587158 -3.337860107421875e-06 L 12.99121570587158 3.525386810302734 C 12.99121570587158 3.677106857299805 12.95669555664063 3.826846837997437 12.89025497436523 3.963246822357178 C 12.65767574310303 4.440786838531494 11.47469520568848 5.998896598815918 6.017355442047119 5.998896598815918 C 0.5751056671142578 5.998896598815918 -0.6443548202514648 4.456916809082031 -0.8884744644165039 3.984326839447021 C -0.9617643356323242 3.842446804046631 -1.000004768371582 3.685076713562012 -1.000004768371582 3.525386810302734 L -1.000004768371582 -3.337860107421875e-06 C -1.000004768371582 -0.5522832870483398 -0.5522842407226563 -1.000003337860107 -4.76837158203125e-06 -1.000003337860107 Z" stroke="none" fill="#fff"/>
      </g>
      <g id="Tracciato_4309" data-name="Tracciato 4309" transform="translate(0.881 7.051)" fill="#505050" stroke-linecap="round" stroke-linejoin="round">
        <path d="M 6.017355442047119 5.498897075653076 C 3.768495559692383 5.498897075653076 2.025985479354858 5.237066745758057 0.8382354974746704 4.720676898956299 C -0.1235645338892937 4.302526950836182 -0.398824542760849 3.842776775360107 -0.4442345201969147 3.754856824874878 L -0.5000045299530029 3.646896839141846 L -0.5000045299530029 3.525386810302734 L -0.5000045299530029 -3.131103539999458e-06 L -0.5000045299530029 -0.5000031590461731 L -4.531249942374416e-06 -0.5000031590461731 L 11.99121570587158 -0.5000031590461731 L 12.49121570587158 -0.5000031590461731 L 12.49121570587158 -3.131103539999458e-06 L 12.49121570587158 3.525386810302734 L 12.49121570587158 3.640676975250244 L 12.44073581695557 3.744316816329956 C 12.37982559204102 3.869396924972534 12.10865592956543 4.309366703033447 11.17689514160156 4.719727039337158 C 10.00295543670654 5.236746788024902 8.267035484313965 5.498897075653076 6.017355442047119 5.498897075653076 Z" stroke="none"/>
        <path d="M -4.76837158203125e-06 -3.337860107421875e-06 L -4.76837158203125e-06 3.525386810302734 C -4.76837158203125e-06 3.525386810302734 0.7611351013183594 4.998897075653076 6.017355442047119 4.998897075653076 C 11.2735652923584 4.998897075653076 11.99121570587158 3.525386810302734 11.99121570587158 3.525386810302734 L 11.99121570587158 -3.337860107421875e-06 L -4.76837158203125e-06 -3.337860107421875e-06 M -4.76837158203125e-06 -1.000003337860107 L 11.99121570587158 -1.000003337860107 C 12.54349517822266 -1.000003337860107 12.99121570587158 -0.5522832870483398 12.99121570587158 -3.337860107421875e-06 L 12.99121570587158 3.525386810302734 C 12.99121570587158 3.677106857299805 12.95669555664063 3.826846837997437 12.89025497436523 3.963246822357178 C 12.65767574310303 4.440786838531494 11.47469520568848 5.998896598815918 6.017355442047119 5.998896598815918 C 0.5751056671142578 5.998896598815918 -0.6443548202514648 4.456916809082031 -0.8884744644165039 3.984326839447021 C -0.9617643356323242 3.842446804046631 -1.000004768371582 3.685076713562012 -1.000004768371582 3.525386810302734 L -1.000004768371582 -3.337860107421875e-06 C -1.000004768371582 -0.5522832870483398 -0.5522842407226563 -1.000003337860107 -4.76837158203125e-06 -1.000003337860107 Z" stroke="none" fill="#fff"/>
      </g>
      <g id="Tracciato_4310" data-name="Tracciato 4310" transform="translate(0.881 2.453)" fill="#505050" stroke-linecap="round" stroke-linejoin="round">
        <path d="M 6.017355442047119 5.689963817596436 C 3.766085386276245 5.689963817596436 2.021445512771606 5.417713642120361 0.8318854570388794 4.880784034729004 C -0.1292545348405838 4.446943759918213 -0.4026145339012146 3.97339391708374 -0.4476545453071594 3.882863759994507 L -0.5000045299530029 3.777653932571411 L -0.5000045299530029 3.660143852233887 L -0.5000045299530029 3.816147000179626e-06 L -0.5000045299530029 -0.4999961853027344 L -4.531249942374416e-06 -0.4999961853027344 L 11.99121570587158 -0.4999961853027344 L 12.49121570587158 -0.4999961853027344 L 12.49121570587158 3.816147000179626e-06 L 12.49121570587158 3.660143852233887 L 12.49121570587158 3.771593809127808 L 12.44388580322266 3.872493743896484 C 12.40091514587402 3.964093923568726 12.13818550109863 4.443153858184814 11.1832857131958 4.879773616790771 C 10.00753593444824 5.417373657226563 8.269465446472168 5.689963817596436 6.017355442047119 5.689963817596436 Z" stroke="none"/>
        <path d="M -4.76837158203125e-06 3.814697265625e-06 L -4.76837158203125e-06 3.660143852233887 C -4.76837158203125e-06 3.660143852233887 0.7611351013183594 5.189963817596436 6.017355442047119 5.189963817596436 C 11.2735652923584 5.189963817596436 11.99121570587158 3.660143852233887 11.99121570587158 3.660143852233887 L 11.99121570587158 3.814697265625e-06 L -4.76837158203125e-06 3.814697265625e-06 M -4.76837158203125e-06 -0.9999961853027344 L 11.99121570587158 -0.9999961853027344 C 12.54349517822266 -0.9999961853027344 12.99121570587158 -0.5522761344909668 12.99121570587158 3.814697265625e-06 L 12.99121570587158 3.660143852233887 C 12.99121570587158 3.806943893432617 12.95889568328857 3.951943874359131 12.89654541015625 4.084843635559082 C 12.66488552093506 4.578683853149414 11.48415565490723 6.189963817596436 6.017355442047119 6.189963817596436 C 0.5654458999633789 6.189963817596436 -0.6520347595214844 4.594563961029053 -0.8953142166137695 4.105593681335449 C -0.9641647338867188 3.967193841934204 -1.000004768371582 3.814723968505859 -1.000004768371582 3.660143852233887 L -1.000004768371582 3.814697265625e-06 C -1.000004768371582 -0.5522761344909668 -0.5522842407226563 -0.9999961853027344 -4.76837158203125e-06 -0.9999961853027344 Z" stroke="none" fill="#fff"/>
      </g>
      <g id="Ellisse_839" data-name="Ellisse 839" transform="translate(-0.123 -0.108)" fill="#505050" stroke="#fff" stroke-width="1">
        <ellipse cx="7" cy="2.5" rx="7" ry="2.5" stroke="none"/>
        <ellipse cx="7" cy="2.5" rx="6.5" ry="2" fill="none"/>
      </g>
    </g>
  </g>
</svg>
