<svg xmlns="http://www.w3.org/2000/svg" width="22" height="19" viewBox="0 0 22 19">
  <g id="Raggruppa_937" data-name="Raggruppa 937" transform="translate(-229 -639)">
    <g id="Rettangolo_992" data-name="Rettangolo 992" transform="translate(229 639)" fill="none" stroke="#fff" stroke-width="1">
      <path d="M4,0H22a0,0,0,0,1,0,0V19a0,0,0,0,1,0,0H0a0,0,0,0,1,0,0V4A4,4,0,0,1,4,0Z" stroke="none"/>
      <path d="M4,.5H21a.5.5,0,0,1,.5.5V18a.5.5,0,0,1-.5.5H1A.5.5,0,0,1,.5,18V4A3.5,3.5,0,0,1,4,.5Z" fill="none"/>
    </g>
    <g id="Ellisse_846" data-name="Ellisse 846" transform="translate(235 643)" fill="none" stroke="#fff" stroke-width="1">
      <circle cx="6" cy="6" r="6" stroke="none"/>
      <circle cx="6" cy="6" r="5.5" fill="none"/>
    </g>
    <g id="Ellisse_847" data-name="Ellisse 847" transform="translate(232 642)" fill="none" stroke="#fff" stroke-width="1">
      <circle cx="1.5" cy="1.5" r="1.5" stroke="none"/>
      <circle cx="1.5" cy="1.5" r="1" fill="none"/>
    </g>
  </g>
</svg>
