<svg xmlns="http://www.w3.org/2000/svg" width="27.252" height="27.779" viewBox="0 0 27.252 27.779">
  <g id="Raggruppa_941" data-name="Raggruppa 941" transform="translate(-697.002 -364.725)">
    <path id="Tracciato_2880" data-name="Tracciato 2880" d="M41.808,122.155v5.192h7.006" transform="translate(659.696 264.157)" fill="#383a3b" stroke="#fff" stroke-linecap="round" stroke-miterlimit="10" stroke-width="2"/>
    <path id="Tracciato_2881" data-name="Tracciato 2881" d="M62.3,122.155v5.192H55.3" transform="translate(657.983 264.157)" fill="#383a3b" stroke="#fff" stroke-linecap="round" stroke-miterlimit="10" stroke-width="2"/>
    <path id="Tracciato_2882" data-name="Tracciato 2882" d="M60.884,120.7l-.593-4.388c-.085-.422-5.254-4.151-9.312-4.2-5.057-.058-9.163,3.46-9.268,3.987l-.749,4.6,3.581.873v4.5H57.482v-4.5Z" transform="translate(659.804 265.432)" fill="#383a3b" stroke="#fff" stroke-linecap="round" stroke-miterlimit="10" stroke-width="2"/>
    <rect id="Rettangolo_260" data-name="Rettangolo 260" width="9.872" height="2.328" rx="0.503" transform="translate(705.846 368.943)" fill="#383a3b" stroke="#fff" stroke-linecap="round" stroke-miterlimit="10" stroke-width="2"/>
    <path id="Tracciato_2883" data-name="Tracciato 2883" d="M57.34,107.961a1.083,1.083,0,0,0,.946-.667,3.191,3.191,0,0,0,.3-1.159.313.313,0,0,0-.311-.328c-.315,0-.565-.013-.565-.013" transform="translate(657.723 266.235)" fill="#383a3b" stroke="#fff" stroke-linecap="round" stroke-miterlimit="10" stroke-width="2"/>
    <path id="Tracciato_2884" data-name="Tracciato 2884" d="M47.223,107.961a1.083,1.083,0,0,1-.946-.667,3.191,3.191,0,0,1-.3-1.159.314.314,0,0,1,.311-.328c.315,0,.565-.013.565-.013" transform="translate(659.167 266.235)" fill="#383a3b" stroke="#fff" stroke-linecap="round" stroke-miterlimit="10" stroke-width="2"/>
    <path id="Tracciato_2885" data-name="Tracciato 2885" d="M47.785,112.054l1.142-1.746H54.2l1.556,1.95-.429,2.817a.2.2,0,0,1-.346.086l-2.69-2.71-1.443-.067-2.595,2.623a.2.2,0,0,1-.336-.132Z" transform="translate(658.938 265.661)" fill="#383a3b" stroke="#fff" stroke-miterlimit="10" stroke-width="2"/>
    <path id="Tracciato_2886" data-name="Tracciato 2886" d="M55.871,104.94a.2.2,0,0,1,.207.185c-.025,2.236-.538,6.46-4.337,6.46s-4.312-4.224-4.337-6.46a.2.2,0,0,1,.207-.185Z" transform="translate(658.985 266.343)" fill="#383a3b" stroke="#fff" stroke-linecap="round" stroke-miterlimit="10" stroke-width="2"/>
    <path id="Tracciato_2887" data-name="Tracciato 2887" d="M47.785,101.855a4.794,4.794,0,0,1,5.834-2.29,18.471,18.471,0,0,0,1.83-.488l-.134.987a3.947,3.947,0,0,1,.42,1.79" transform="translate(658.938 267.088)" fill="#383a3b" stroke="#fff" stroke-linecap="round" stroke-miterlimit="10" stroke-width="2"/>
    <path id="Tracciato_2888" data-name="Tracciato 2888" d="M41.808,122.155v5.192h7.006" transform="translate(659.696 264.157)" fill="#383a3b" stroke="#fff" stroke-linecap="round" stroke-miterlimit="10" stroke-width="2"/>
    <path id="Tracciato_2889" data-name="Tracciato 2889" d="M62.3,122.155v5.192H55.3" transform="translate(657.983 264.157)" fill="#383a3b" stroke="#fff" stroke-linecap="round" stroke-miterlimit="10" stroke-width="2"/>
    <path id="Tracciato_2890" data-name="Tracciato 2890" d="M60.884,120.7l-.593-4.388c-.085-.422-5.254-4.151-9.312-4.2-5.057-.058-9.163,3.46-9.268,3.987l-.749,4.6,3.581.873v4.5H57.482v-4.5Z" transform="translate(659.804 265.432)" fill="#383a3b" stroke="#fff" stroke-linecap="round" stroke-miterlimit="10" stroke-width="2"/>
    <rect id="Rettangolo_261" data-name="Rettangolo 261" width="9.872" height="2.328" rx="0.503" transform="translate(705.846 368.943)" fill="#383a3b" stroke="#fff" stroke-linecap="round" stroke-miterlimit="10" stroke-width="2"/>
    <path id="Tracciato_2891" data-name="Tracciato 2891" d="M57.34,107.961a1.083,1.083,0,0,0,.946-.667,3.191,3.191,0,0,0,.3-1.159.313.313,0,0,0-.311-.328c-.315,0-.565-.013-.565-.013" transform="translate(657.723 266.235)" fill="#383a3b" stroke="#fff" stroke-linecap="round" stroke-miterlimit="10" stroke-width="2"/>
    <path id="Tracciato_2892" data-name="Tracciato 2892" d="M47.223,107.961a1.083,1.083,0,0,1-.946-.667,3.191,3.191,0,0,1-.3-1.159.314.314,0,0,1,.311-.328c.315,0,.565-.013.565-.013" transform="translate(659.167 266.235)" fill="#383a3b" stroke="#fff" stroke-linecap="round" stroke-miterlimit="10" stroke-width="2"/>
    <path id="Tracciato_2893" data-name="Tracciato 2893" d="M47.785,112.054l1.142-1.746H54.2l1.556,1.95-.429,2.817a.2.2,0,0,1-.346.086l-2.69-2.71-1.443-.067-2.595,2.623a.2.2,0,0,1-.336-.132Z" transform="translate(658.938 265.661)" fill="#383a3b" stroke="#fff" stroke-miterlimit="10" stroke-width="2"/>
    <path id="Tracciato_2894" data-name="Tracciato 2894" d="M55.871,104.94a.2.2,0,0,1,.207.185c-.025,2.236-.538,6.46-4.337,6.46s-4.312-4.224-4.337-6.46a.2.2,0,0,1,.207-.185Z" transform="translate(658.985 266.343)" fill="#383a3b" stroke="#fff" stroke-linecap="round" stroke-miterlimit="10" stroke-width="2"/>
    <path id="Tracciato_2895" data-name="Tracciato 2895" d="M47.785,101.855a4.794,4.794,0,0,1,5.834-2.29,18.471,18.471,0,0,0,1.83-.488l-.134.987a3.947,3.947,0,0,1,.42,1.79" transform="translate(658.938 267.088)" fill="#383a3b" stroke="#fff" stroke-linecap="round" stroke-miterlimit="10" stroke-width="2"/>
    <path id="Tracciato_2907" data-name="Tracciato 2907" d="M-4308.605,1576.788h27.252" transform="translate(5005.608 -1185.284)" fill="#383a3b" stroke="#fff" stroke-width="2"/>
  </g>
</svg>
