<svg xmlns="http://www.w3.org/2000/svg" width="145" height="160" viewBox="0 0 145 160">
  <g id="Raggruppa_1299" data-name="Raggruppa 1299" transform="translate(-1325 -556)">
    <text id="Upload_Dataset" data-name="Upload
Dataset" transform="translate(1470 687)" fill="#fff" font-size="18" font-family="Roboto-Medium, Roboto" font-weight="500"><tspan x="-56.61" y="0">Upload</tspan><tspan x="-62.156" y="24">Dataset</tspan></text>
    <g id="Raggruppa_1297" data-name="Raggruppa 1297">
      <g id="Tracciato_5102" data-name="Tracciato 5102" transform="translate(1364.873 578.236)" fill="none">
        <path d="M44.109,0a41.264,41.264,0,1,1-13.66,80.213C14.492,74.733,40.075,0,44.109,0Z" stroke="none"/>
        <path d="M 46.87321472167969 6.1072998046875 C 40.35555648803711 18.09336853027344 26.27890777587891 68.48606872558594 32.39862823486328 74.53882598876953 C 36.29282760620117 75.87718963623047 40.12319564819336 76.52777099609375 44.10861206054688 76.52777099609375 C 63.55329513549805 76.52777099609375 79.37269592285156 60.70845794677734 79.37269592285156 41.26388931274414 C 79.37269592285156 22.74977493286133 65.03050231933594 7.522224426269531 46.87321472167969 6.1072998046875 M 44.10861206054688 7.62939453125e-06 C 66.89814758300781 7.62939453125e-06 85.37269592285156 18.47447204589844 85.37269592285156 41.26388931274414 C 85.37269592285156 64.05330657958984 66.89814758300781 82.52777099609375 44.10861206054688 82.52777099609375 C 39.41396331787109 82.52777099609375 34.90242767333984 81.74378967285156 30.44850921630859 80.21307373046875 C 14.49154663085938 74.73316955566406 40.07471084594727 7.62939453125e-06 44.10861206054688 7.62939453125e-06 Z" stroke="none" fill="#019dba"/>
      </g>
      <g id="Raggruppa_1295" data-name="Raggruppa 1295" transform="translate(1325 556)">
        <g id="Sottrazione_13" data-name="Sottrazione 13" transform="translate(95.001 92) rotate(180)" fill="#383a3b" stroke-linejoin="round">
          <path d="M 55.14924621582031 88.99980926513672 L 3.00211238861084 88.99980926513672 C 3.001413822174072 88.99916076660156 3.000714063644409 88.99844360351563 3.000086307525635 88.99774169921875 L 3.000000476837158 2.999705791473389 C 3.000557899475098 3.001248359680176 3.001165866851807 3.000638723373413 3.001773595809937 3.000077247619629 L 70.00019836425781 3.000005722045898 C 69.99935150146484 3.000632524490356 70.00006866455078 3.001336336135864 70.000732421875 3.002041339874268 L 70.00080108642578 75.03228759765625 L 55.14924621582031 88.99980926513672 Z" stroke="none"/>
          <path d="M 53.95989990234375 86.00006103515625 L 67.00080108642578 73.73542022705078 L 67.00080108642578 5.999998092651367 L 6.000000476837158 5.999998092651367 L 6.000000476837158 85.99981689453125 L 53.95989990234375 86.00006103515625 M 56.33805465698242 92.00006866455078 L 56.33834457397461 91.99980163574219 L 2.999691486358643 91.99980163574219 C 1.345655083656311 91.99980163574219 5.432128773463774e-07 90.65373992919922 5.432128773463774e-07 88.99919891357422 L 5.432128773463774e-07 2.999706983566284 C 5.432128773463774e-07 1.345652461051941 1.345655083656311 -2.031360963883344e-06 2.999691486358643 -2.031360963883344e-06 L 70.00019836425781 -2.031360963883344e-06 C 71.65472412109375 -2.031360963883344e-06 73.00080108642578 1.345652461051941 73.00080108642578 2.999706983566284 L 73.00080108642578 76.32917785644531 L 56.33834457397461 91.99980163574219 L 56.33805465698242 92.00006866455078 Z" stroke="none" fill="#fff"/>
        </g>
        <g id="Sottrazione_14" data-name="Sottrazione 14" transform="translate(73.001 119) rotate(180)" fill="#383a3b" stroke-linejoin="round">
          <path d="M 55.14924621582031 88.99980926513672 L 3.00211238861084 88.99980926513672 C 3.001413822174072 88.99916076660156 3.000714063644409 88.99844360351563 3.000086307525635 88.99774169921875 L 3.000000476837158 2.999705791473389 C 3.000557899475098 3.001248359680176 3.001165866851807 3.000638723373413 3.001773595809937 3.000077247619629 L 70.00019836425781 3.000005722045898 C 69.99935150146484 3.000632524490356 70.00006866455078 3.001336336135864 70.000732421875 3.002041339874268 L 70.00080108642578 75.03228759765625 L 55.14924621582031 88.99980926513672 Z" stroke="none"/>
          <path d="M 53.95989990234375 86.00006103515625 L 67.00080108642578 73.73542022705078 L 67.00080108642578 5.999998092651367 L 6.000000476837158 5.999998092651367 L 6.000000476837158 85.99981689453125 L 53.95989990234375 86.00006103515625 M 56.33805465698242 92.00006866455078 L 56.33834457397461 91.99980163574219 L 2.999691486358643 91.99980163574219 C 1.345655083656311 91.99980163574219 5.432128773463774e-07 90.65373992919922 5.432128773463774e-07 88.99919891357422 L 5.432128773463774e-07 2.999706983566284 C 5.432128773463774e-07 1.345652461051941 1.345655083656311 -2.031360963883344e-06 2.999691486358643 -2.031360963883344e-06 L 70.00019836425781 -2.031360963883344e-06 C 71.65472412109375 -2.031360963883344e-06 73.00080108642578 1.345652461051941 73.00080108642578 2.999706983566284 L 73.00080108642578 76.32917785644531 L 56.33834457397461 91.99980163574219 L 56.33805465698242 92.00006866455078 Z" stroke="none" fill="#fff"/>
        </g>
      </g>
      <g id="Raggruppa_1296" data-name="Raggruppa 1296" transform="translate(1333.001 596)">
        <text id="_0IIII0_00000III0II00II_0I0I0I0000I0I0_0I000_0III000I" data-name="0IIII0++00000III0II00II+0I0I0I0000I0I0
0I000+0III000I" transform="matrix(-1, 0, 0, 1, 51, 0)" fill="#fff" font-size="12" font-family="Roboto-Bold, Roboto" font-weight="700"><tspan x="0" y="13">0IIII0+</tspan><tspan x="0" y="29">+00000II</tspan><tspan x="0" y="45">I0II00II</tspan><tspan x="0" y="61">+0I0I0I0</tspan></text>
      </g>
      <g id="Ellisse_1195" data-name="Ellisse 1195" transform="translate(1379 589)" fill="#019dba" stroke="#019dba" stroke-width="6">
        <circle cx="30.5" cy="30.5" r="30.5" stroke="none"/>
        <circle cx="30.5" cy="30.5" r="27.5" fill="none"/>
      </g>
      <path id="Tracciato_5100" data-name="Tracciato 5100" d="M0,0,10.748,9.538,20.87,0" transform="translate(1418.721 616.261) rotate(180)" fill="none" stroke="#fff" stroke-linecap="round" stroke-linejoin="round" stroke-width="6"/>
      <path id="Tracciato_5101" data-name="Tracciato 5101" d="M0,0,10.748,9.538,20.87,0" transform="translate(1418.721 631.383) rotate(180)" fill="none" stroke="#fff" stroke-linecap="round" stroke-linejoin="round" stroke-width="6"/>
    </g>
  </g>
</svg>
