<svg xmlns="http://www.w3.org/2000/svg" width="28" height="28.001" viewBox="0 0 28 28.001"><g transform="translate(-1723 -1085)"><path d="M5069,1977a14,14,0,1,1,9.9-4.1A13.907,13.907,0,0,1,5069,1977Zm-1.687-13.911v6.684h2.921V1963.1h2.384l.139-1.016c.075-.546.15-1.095.227-1.657h-.536l-.88,0-1.354,0s0-.075,0-.183c0-.379.011-1.268.022-1.707.021-.686.4-1.018,1.177-1.045.172-.006.353-.009.57-.009l.438,0h.04l.4,0h.2v-2.382l-.234-.024c-.186-.019-.375-.039-.563-.048l-.051,0c-.361-.016-.771-.034-1.164-.034-.092,0-.183,0-.275,0a3.8,3.8,0,0,0-2.1.614,2.967,2.967,0,0,0-1.262,1.987,6.538,6.538,0,0,0-.087,1.022c-.011.38-.008.766,0,1.14v.03q0,.217,0,.433v.2h-2.406v2.66Z" transform="translate(-3332 -864)" fill="#fff"/></g></svg>