<svg xmlns="http://www.w3.org/2000/svg" width="19.149" height="16.962" viewBox="0 0 19.149 16.962"><g transform="translate(-1164.871 -537.366)"><g transform="translate(1164.871 541.079) rotate(-45)" fill="none" stroke="#707070" stroke-width="1"><path d="M0,0H2.252a3,3,0,0,1,3,3V13.129a0,0,0,0,1,0,0H0a0,0,0,0,1,0,0V0A0,0,0,0,1,0,0Z" stroke="none"/><path d="M1,.5H2.252A2.5,2.5,0,0,1,4.752,3v9.129a.5.5,0,0,1-.5.5H1a.5.5,0,0,1-.5-.5V1A.5.5,0,0,1,1,.5Z" fill="none"/></g><g transform="translate(1180.962 549.744) rotate(135)" fill="none"><path d="M2.626,0,5.252,4.376H0Z" stroke="none"/><path d="M 2.625791788101196 1.943650484085083 L 1.766191005706787 3.376319408416748 L 3.485392570495605 3.376319408416748 L 2.625791788101196 1.943650484085083 M 2.625791788101196 -4.76837158203125e-07 L 5.25158166885376 4.376319408416748 L 1.9073486328125e-06 4.376319408416748 L 2.625791788101196 -4.76837158203125e-07 Z" stroke="none" fill="#707070"/></g><path d="M1440.546,271.531h14.614" transform="translate(-271.64 282.296)" fill="none" stroke="#707070" stroke-linecap="round" stroke-width="1"/></g></svg>