<svg xmlns="http://www.w3.org/2000/svg" xmlns:xlink="http://www.w3.org/1999/xlink" width="276.517" height="112.229" viewBox="0 0 276.517 112.229"><defs><clipPath id="a"><rect width="276.517" height="64.856" transform="translate(0 0)" fill="none"/></clipPath></defs><g transform="translate(-1504.072 -231.771)"><text transform="translate(1510 340)" fill="#fff" font-size="18" font-family="Roboto-Bold, Roboto" font-weight="700"><tspan x="0" y="0">Interactive Smart Data Analysis</tspan><tspan y="0" font-size="10.499" baseline-shift="5.999400079342301">©</tspan></text><g transform="translate(1504.072 231.771)" clip-path="url(#a)"><path d="M309.6,354.759H290.342a6.6,6.6,0,0,1,0-13.195H319.45l4.148-5.558,0,0a6.6,6.6,0,0,1,10.575,7.892l-30.693,41.118h19.306a6.6,6.6,0,0,1,0,13.194H290.331a6.6,6.6,0,0,1-5.293-10.544v0Zm244.545,36.851a6.6,6.6,0,0,1-13.195,0V367.989L520.391,395.53c-.072.1-.146.193-.223.285-.018.023-.038.045-.057.067s-.028.034-.042.051a6.573,6.573,0,0,1-1.7,1.4l-.014.008c-.038.022-.075.042-.113.063l-.055.03-.073.039-.1.051-.028.014a6.569,6.569,0,0,1-2.9.672h-.035l-.132,0h-.035c-.044,0-.087,0-.13,0l-.049,0-.116-.007-.052-.005c-.037,0-.075-.006-.11-.01l-.068-.006-.09-.011-.083-.011-.075-.011-.094-.014-.062-.01-.106-.019-.048-.009c-.038-.007-.078-.015-.116-.024l-.039-.008-.123-.028-.029-.008-.133-.033-.019-.006c-.047-.013-.095-.026-.142-.042h-.006a6.591,6.591,0,0,1-2.564-1.456l-.052-.048-.058-.056c-.028-.026-.056-.054-.083-.081l-.024-.024a6.623,6.623,0,0,1-.885-1.1l0-.007c-.024-.04-.05-.079-.073-.119l-.022-.036c-.018-.03-.036-.061-.055-.092l-.039-.068c-.012-.02-.022-.039-.032-.06-.021-.036-.041-.072-.061-.11l-.009-.017a6.558,6.558,0,0,1-.745-3.013V367.862l-20.579,27.694a6.6,6.6,0,1,1-10.575-7.892v0l32.387-43.586v0a7.053,7.053,0,0,1,11.958,5.035v22.634l26.676-35.737v0a6.6,6.6,0,0,1,10.575,7.892l-4.79,6.416v41.3Zm-130.325,3.945a6.6,6.6,0,1,1-10.575-7.892v0L451.8,336.006l0,0a6.6,6.6,0,1,1,10.575,7.892l-4.789,6.416v41.3a6.6,6.6,0,0,1-13.2,0V367.989Zm-69.363,2.652a6.6,6.6,0,0,1-5.293-10.544v0l38.56-51.656,0,0A6.6,6.6,0,0,1,398.3,343.9l-30.692,41.118h19.3a6.6,6.6,0,0,1,0,13.194H354.456Z" transform="translate(-283.728 -333.352)" fill="#fff" fill-rule="evenodd"/></g></g></svg>