<svg xmlns="http://www.w3.org/2000/svg" xmlns:xlink="http://www.w3.org/1999/xlink" width="386" height="35" viewBox="0 0 386 35"><defs><clipPath id="a"><rect width="146.66" height="34.399" transform="translate(0 0)" fill="none"/></clipPath></defs><g transform="translate(-43 -19)"><text transform="translate(210 50)" fill="#fff" font-size="15" font-family="Roboto-Bold, Roboto" font-weight="700"><tspan x="0" y="0">Interactive Smart Data Analysis</tspan><tspan y="0" font-size="8.75" baseline-shift="4.999500156940817">©</tspan></text><g transform="translate(43 19)" clip-path="url(#a)"><path d="M297.45,344.706H287.236a3.5,3.5,0,0,1,0-7h15.439l2.2-2.948h0a3.5,3.5,0,0,1,5.609,4.186l-16.279,21.808h10.239a3.5,3.5,0,0,1,0,7H287.23a3.5,3.5,0,0,1-2.807-5.592h0Zm129.7,19.545a3.5,3.5,0,0,1-7,0h0V351.723l-10.9,14.608c-.038.052-.077.1-.118.151l-.03.036-.022.027a3.485,3.485,0,0,1-.9.742l-.007,0-.06.033-.029.016-.039.021-.054.027-.015.007a3.485,3.485,0,0,1-1.54.357h-.107l-.069,0h-.026l-.061,0-.027,0-.058-.005-.036,0-.048-.006-.044-.006-.04-.006-.05-.008-.033-.006-.056-.01-.025-.005-.061-.013-.021,0-.065-.015-.016,0-.07-.018-.01,0-.076-.022h0a3.5,3.5,0,0,1-1.36-.772l-.028-.025-.031-.03-.044-.043-.013-.013a3.512,3.512,0,0,1-.47-.583l0,0-.039-.063-.012-.019-.029-.049-.021-.036c-.006-.01-.012-.021-.017-.032l-.032-.058,0-.009a3.478,3.478,0,0,1-.4-1.6v-.018h0V351.656l-10.915,14.688a3.5,3.5,0,1,1-5.609-4.186h0l17.177-23.117h0a3.741,3.741,0,0,1,6.342,2.671v12l14.149-18.954h0a3.5,3.5,0,0,1,5.609,4.186l-2.54,3.4v21.9Zm-69.122,2.093a3.5,3.5,0,1,1-5.609-4.186h0l20.451-27.4h0a3.5,3.5,0,1,1,5.609,4.186l-2.54,3.4v21.9a3.5,3.5,0,0,1-7,0h0V351.723Zm-36.789,1.406a3.5,3.5,0,0,1-2.807-5.592h0l20.451-27.4h0a3.5,3.5,0,0,1,5.608,4.186l-16.278,21.808h10.239a3.5,3.5,0,0,1,0,7H321.241Z" transform="translate(-283.728 -333.352)" fill="#e7343f" fill-rule="evenodd"/></g></g></svg>