<svg xmlns="http://www.w3.org/2000/svg" width="44" height="44" viewBox="0 0 44 44"><g transform="translate(-284 -213)"><g transform="translate(284 213)" fill="#8d6dbe" stroke="#8d6dbe" stroke-width="5"><circle cx="22" cy="22" r="22" stroke="none"/><circle cx="22" cy="22" r="19.5" fill="none"/></g><path d="M41.808,122.155V128.1h8.026" transform="translate(254.62 120.221)" fill="#8d6dbe" stroke="#fff" stroke-linecap="round" stroke-miterlimit="10" stroke-width="1"/><path d="M63.321,122.155V128.1H55.3" transform="translate(254.62 120.221)" fill="#8d6dbe" stroke="#fff" stroke-linecap="round" stroke-miterlimit="10" stroke-width="1"/><path d="M63.782,121.949l-.679-5.026c-.1-.483-6.018-4.755-10.667-4.808-5.793-.066-10.5,3.964-10.616,4.567l-.858,5.267,4.1,1V128.1H59.885v-5.154Z" transform="translate(254.62 120.221)" fill="#8d6dbe" stroke="#fff" stroke-linecap="round" stroke-miterlimit="10" stroke-width="1"/><rect width="11.308" height="2.667" rx="0.503" stroke-width="1" fill="#8d6dbe" stroke="#fff" stroke-linecap="round" stroke-miterlimit="10" transform="translate(301.402 222.48)"/><path d="M57.34,108.276a1.241,1.241,0,0,0,1.084-.764,3.655,3.655,0,0,0,.344-1.328.359.359,0,0,0-.356-.376c-.361,0-.647-.015-.647-.015" transform="translate(254.62 120.221)" fill="#8d6dbe" stroke="#fff" stroke-linecap="round" stroke-miterlimit="10" stroke-width="1"/><path d="M47.4,108.276a1.241,1.241,0,0,1-1.084-.764,3.655,3.655,0,0,1-.344-1.328.359.359,0,0,1,.356-.376c.361,0,.647-.015.647-.015" transform="translate(254.62 120.221)" fill="#8d6dbe" stroke="#fff" stroke-linecap="round" stroke-miterlimit="10" stroke-width="1"/><path d="M47.785,112.308l1.308-2h6.039l1.782,2.234-.491,3.227a.234.234,0,0,1-.4.1l-3.081-3.1-1.653-.077-2.972,3.005a.234.234,0,0,1-.385-.151Z" transform="translate(254.62 120.221)" fill="#8d6dbe" stroke="#fff" stroke-miterlimit="10" stroke-width="1"/><path d="M57.1,104.94a.224.224,0,0,1,.237.212c-.029,2.561-.616,7.4-4.968,7.4s-4.939-4.839-4.968-7.4a.224.224,0,0,1,.237-.212Z" transform="translate(254.62 120.221)" fill="#8d6dbe" stroke="#fff" stroke-linecap="round" stroke-miterlimit="10" stroke-width="1"/><path d="M47.785,102.259a5.492,5.492,0,0,1,6.683-2.623,21.157,21.157,0,0,0,2.1-.559l-.154,1.131a4.521,4.521,0,0,1,.481,2.051" transform="translate(254.62 120.221)" fill="#8d6dbe" stroke="#fff" stroke-linecap="round" stroke-miterlimit="10" stroke-width="1"/><path d="M41.808,122.155V128.1h8.026" transform="translate(254.62 120.221)" fill="#8d6dbe" stroke="#fff" stroke-linecap="round" stroke-miterlimit="10" stroke-width="1"/><path d="M63.321,122.155V128.1H55.3" transform="translate(254.62 120.221)" fill="#8d6dbe" stroke="#fff" stroke-linecap="round" stroke-miterlimit="10" stroke-width="1"/><path d="M63.782,121.949l-.679-5.026c-.1-.483-6.018-4.755-10.667-4.808-5.793-.066-10.5,3.964-10.616,4.567l-.858,5.267,4.1,1V128.1H59.885v-5.154Z" transform="translate(254.62 120.221)" fill="#8d6dbe" stroke="#fff" stroke-linecap="round" stroke-miterlimit="10" stroke-width="1"/><rect width="11.308" height="2.667" rx="0.503" stroke-width="1" fill="#8d6dbe" stroke="#fff" stroke-linecap="round" stroke-miterlimit="10" transform="translate(301.402 222.48)"/><path d="M57.34,108.276a1.241,1.241,0,0,0,1.084-.764,3.655,3.655,0,0,0,.344-1.328.359.359,0,0,0-.356-.376c-.361,0-.647-.015-.647-.015" transform="translate(254.62 120.221)" fill="#8d6dbe" stroke="#fff" stroke-linecap="round" stroke-miterlimit="10" stroke-width="1"/><path d="M47.4,108.276a1.241,1.241,0,0,1-1.084-.764,3.655,3.655,0,0,1-.344-1.328.359.359,0,0,1,.356-.376c.361,0,.647-.015.647-.015" transform="translate(254.62 120.221)" fill="#8d6dbe" stroke="#fff" stroke-linecap="round" stroke-miterlimit="10" stroke-width="1"/><path d="M47.785,112.308l1.308-2h6.039l1.782,2.234-.491,3.227a.234.234,0,0,1-.4.1l-3.081-3.1-1.653-.077-2.972,3.005a.234.234,0,0,1-.385-.151Z" transform="translate(254.62 120.221)" fill="#8d6dbe" stroke="#fff" stroke-miterlimit="10" stroke-width="1"/><path d="M57.1,104.94a.224.224,0,0,1,.237.212c-.029,2.561-.616,7.4-4.968,7.4s-4.939-4.839-4.968-7.4a.224.224,0,0,1,.237-.212Z" transform="translate(254.62 120.221)" fill="#8d6dbe" stroke="#fff" stroke-linecap="round" stroke-miterlimit="10" stroke-width="1"/><path d="M47.785,102.259a5.492,5.492,0,0,1,6.683-2.623,21.157,21.157,0,0,0,2.1-.559l-.154,1.131a4.521,4.521,0,0,1,.481,2.051" transform="translate(254.62 120.221)" fill="#8d6dbe" stroke="#fff" stroke-linecap="round" stroke-miterlimit="10" stroke-width="1"/></g></svg>