<svg xmlns="http://www.w3.org/2000/svg" width="13.366" height="14.236" viewBox="0 0 13.366 14.236"><g transform="translate(-448.428 -532.092)"><g transform="translate(454.083 542.887) rotate(-135)" fill="none" stroke="#707070" stroke-width="1"><path d="M0,0H4.362a0,0,0,0,1,0,0V7.9a3,3,0,0,1-3,3H0a0,0,0,0,1,0,0V0A0,0,0,0,1,0,0Z" stroke="none"/><path d="M1,.5H3.362a.5.5,0,0,1,.5.5V7.9a2.5,2.5,0,0,1-2.5,2.5H1a.5.5,0,0,1-.5-.5V1A.5.5,0,0,1,1,.5Z" fill="none"/></g><g transform="translate(451.512 545.457) rotate(-135)" fill="none"><path d="M2.181,0,4.362,3.635H0Z" stroke="none"/><path d="M 2.180953979492188 1.943646550178528 L 1.766193151473999 2.634915351867676 L 2.595714807510376 2.634915351867676 L 2.180953979492188 1.943646550178528 M 2.180953979492188 -4.76837158203125e-06 L 4.361904144287109 3.634915351867676 L 3.814697265625e-06 3.634915351867676 L 2.180953979492188 -4.76837158203125e-06 Z" stroke="none" fill="#707070"/></g><path d="M1451.962,271.531h-11.416" transform="translate(-990.675 274.296)" fill="none" stroke="#707070" stroke-linecap="round" stroke-width="1"/></g></svg>