<svg xmlns="http://www.w3.org/2000/svg" width="12" height="16" viewBox="0 0 12 16"><g transform="translate(-1060 -538)"><g transform="translate(1060 538)" fill="none" stroke="#707070" stroke-width="1"><path d="M0,0H8a4,4,0,0,1,4,4V16a0,0,0,0,1,0,0H0a0,0,0,0,1,0,0V0A0,0,0,0,1,0,0Z" stroke="none"/><path d="M1,.5H8A3.5,3.5,0,0,1,11.5,4V15a.5.5,0,0,1-.5.5H1A.5.5,0,0,1,.5,15V1A.5.5,0,0,1,1,.5Z" fill="none"/></g><path d="M1349.234,261.157h5.852" transform="translate(-286.504 282.427)" fill="none" stroke="#707070" stroke-width="1"/><path d="M1349.234,261.157h5.852" transform="translate(-286.504 285.705)" fill="none" stroke="#707070" stroke-width="1"/><path d="M1349.234,261.157h4.487" transform="translate(-286.504 288.983)" fill="none" stroke="#707070" stroke-width="1"/></g></svg>