<svg xmlns="http://www.w3.org/2000/svg" width="18" height="13" viewBox="0 0 18 13">
  <g id="Group_273" data-name="Group 273" transform="translate(-92 -585)">
    <rect id="Rectangle_272" data-name="Rectangle 272" width="3" height="3" rx="1" transform="translate(107 585)" fill="#afb0b1"/>
    <rect id="Rectangle_275" data-name="Rectangle 275" width="3" height="3" rx="1" transform="translate(107 590)" fill="#afb0b1"/>
    <rect id="Rectangle_278" data-name="Rectangle 278" width="3" height="3" rx="1" transform="translate(107 595)" fill="#afb0b1"/>
    <rect id="Rectangle_273" data-name="Rectangle 273" width="3" height="3" rx="1" transform="translate(97 585)" fill="#afb0b1"/>
    <rect id="Rectangle_283" data-name="Rectangle 283" width="3" height="3" rx="1" transform="translate(92 585)" fill="#afb0b1"/>
    <rect id="Rectangle_277" data-name="Rectangle 277" width="3" height="3" rx="1" transform="translate(97 590)" fill="#afb0b1"/>
    <rect id="Rectangle_282" data-name="Rectangle 282" width="3" height="3" rx="1" transform="translate(92 590)" fill="#afb0b1"/>
    <rect id="Rectangle_280" data-name="Rectangle 280" width="3" height="3" rx="1" transform="translate(97 595)" fill="#afb0b1"/>
    <rect id="Rectangle_281" data-name="Rectangle 281" width="3" height="3" rx="1" transform="translate(92 595)" fill="#afb0b1"/>
    <rect id="Rectangle_274" data-name="Rectangle 274" width="3" height="3" rx="1" transform="translate(102 585)" fill="#afb0b1"/>
    <rect id="Rectangle_276" data-name="Rectangle 276" width="3" height="3" rx="1" transform="translate(102 590)" fill="#afb0b1"/>
    <rect id="Rectangle_279" data-name="Rectangle 279" width="3" height="3" rx="1" transform="translate(102 595)" fill="#afb0b1"/>
  </g>
</svg>
