<svg xmlns="http://www.w3.org/2000/svg" width="16.735" height="25.913" viewBox="0 0 16.735 25.913">
  <g id="Group_522" data-name="Group 522" transform="translate(-444.853 -95.162)">
    <g id="Path_2806" data-name="Path 2806" transform="translate(444.853 95.162)" fill="#fff">
      <path d="M 8.696040153503418 24.25225448608398 C 7.872691631317139 23.18269538879395 6.531617641448975 21.36319160461426 5.203415393829346 19.22788429260254 C 2.453515291213989 14.80693340301514 0.9999953508377075 11.05143356323242 0.9999953508377075 8.367373466491699 C 0.9999953508377075 4.304993629455566 4.304985523223877 1.000003576278687 8.367375373840332 1.000003576278687 C 12.42976570129395 1.000003576278687 15.73475551605225 4.304993629455566 15.73475551605225 8.367373466491699 C 15.73475551605225 11.02478313446045 14.39673519134521 14.7851037979126 11.86533546447754 19.24181365966797 C 10.66063499450684 21.36277198791504 9.448888778686523 23.17409706115723 8.696040153503418 24.25225448608398 Z" stroke="none"/>
      <path d="M 8.367375373840332 2.000003814697266 C 4.856385231018066 2.000003814697266 1.999995231628418 4.856393814086914 1.999995231628418 8.367374420166016 C 1.999995231628418 10.86020374298096 3.396904945373535 14.42592334747314 6.039705276489258 18.67904281616211 C 6.96714973449707 20.17159843444824 7.902023315429688 21.50844573974609 8.656566619873047 22.5356502532959 C 9.334301948547363 21.51841163635254 10.16611480712891 20.20865440368652 10.99580574035645 18.74792289733887 C 13.44184494018555 14.44149398803711 14.73475551605225 10.85195350646973 14.73475551605225 8.367374420166016 C 14.73475551605225 4.856393814086914 11.8783655166626 2.000003814697266 8.367375373840332 2.000003814697266 M 8.367375373840332 3.814697265625e-06 C 12.98854541778564 3.814697265625e-06 16.73475456237793 3.746204376220703 16.73475456237793 8.367374420166016 C 16.73475456237793 15.2893238067627 8.734965324401855 25.91256332397461 8.734965324401855 25.91256332397461 C 8.734965324401855 25.91256332397461 -3.814697265625e-06 15.4001636505127 -3.814697265625e-06 8.367374420166016 C -3.814697265625e-06 3.746204376220703 3.74620532989502 3.814697265625e-06 8.367375373840332 3.814697265625e-06 Z" stroke="none" fill="#707070"/>
    </g>
    <g id="Ellipse_349" data-name="Ellipse 349" transform="translate(449 99)" fill="#fff" stroke="#707070" stroke-width="2">
      <circle cx="4.5" cy="4.5" r="4.5" stroke="none"/>
      <circle cx="4.5" cy="4.5" r="3.5" fill="none"/>
    </g>
  </g>
</svg>
