<svg xmlns="http://www.w3.org/2000/svg" width="72" height="72" viewBox="0 0 72 72">
  <g id="Group_510" data-name="Group 510" transform="translate(-1641 -391)">
    <g id="Ellipse_585" data-name="Ellipse 585" transform="translate(1641 391)" fill="none" stroke="#fff" stroke-linecap="round" stroke-width="2" stroke-dasharray="3 0">
      <circle cx="36" cy="36" r="36" stroke="none"/>
      <circle cx="36" cy="36" r="35" fill="none"/>
    </g>
    <g id="Polygon_17" data-name="Polygon 17" transform="translate(1690 433) rotate(180)" fill="none">
      <path d="M10.913,4.408a3,3,0,0,1,5.174,0l8.261,14.073A3,3,0,0,1,21.761,23H5.239a3,3,0,0,1-2.587-4.519Z" stroke="none"/>
      <path d="M 13.5 3.926502227783203 C 12.78293991088867 3.926502227783203 12.13813972473145 4.29570198059082 11.77517032623291 4.914102554321289 L 3.514640808105469 18.98759269714355 C 3.147119522094727 19.61374282836914 3.14307975769043 20.36371231079102 3.503839492797852 20.99378204345703 C 3.864599227905273 21.62384223937988 4.513429641723633 22.00000190734863 5.239469528198242 22.00000190734863 L 21.76053047180176 22.00000190734863 C 22.4865608215332 22.00000190734863 23.13538932800293 21.62385177612305 23.49615097045898 20.99379348754883 C 23.85692024230957 20.36372184753418 23.85288047790527 19.61374282836914 23.48535919189453 18.98759269714355 L 15.22482967376709 4.914102554321289 C 14.86186027526855 4.29570198059082 14.21706008911133 3.926502227783203 13.5 3.926502227783203 M 13.5 2.926502227783203 C 14.50378513336182 2.926502227783203 15.50757026672363 3.420303344726562 16.08724975585938 4.407901763916016 L 24.34778022766113 18.48139190673828 C 25.52164077758789 20.4813232421875 24.07950973510742 23.00000190734863 21.76053047180176 23.00000190734863 L 5.239469528198242 23.00000190734863 C 2.920490264892578 23.00000190734863 1.478349685668945 20.4813232421875 2.652219772338867 18.48139190673828 L 10.91275024414062 4.407901763916016 C 11.49242973327637 3.420303344726562 12.49621486663818 2.926502227783203 13.5 2.926502227783203 Z" stroke="none" fill="#fff"/>
    </g>
    <g id="Polygon_18" data-name="Polygon 18" transform="translate(1663 421)" fill="none">
      <path d="M10.913,4.408a3,3,0,0,1,5.174,0l8.261,14.073A3,3,0,0,1,21.761,23H5.239a3,3,0,0,1-2.587-4.519Z" stroke="none"/>
      <path d="M 13.5 3.926502227783203 C 12.78293991088867 3.926502227783203 12.13813972473145 4.29570198059082 11.77517032623291 4.914102554321289 L 3.514640808105469 18.98759269714355 C 3.147119522094727 19.61374282836914 3.14307975769043 20.36371231079102 3.503839492797852 20.99378204345703 C 3.864599227905273 21.62384223937988 4.513429641723633 22.00000190734863 5.239469528198242 22.00000190734863 L 21.76053047180176 22.00000190734863 C 22.4865608215332 22.00000190734863 23.13538932800293 21.62385177612305 23.49615097045898 20.99379348754883 C 23.85692024230957 20.36372184753418 23.85288047790527 19.61374282836914 23.48535919189453 18.98759269714355 L 15.22482967376709 4.914102554321289 C 14.86186027526855 4.29570198059082 14.21706008911133 3.926502227783203 13.5 3.926502227783203 M 13.5 2.926502227783203 C 14.50378513336182 2.926502227783203 15.50757026672363 3.420303344726562 16.08724975585938 4.407901763916016 L 24.34778022766113 18.48139190673828 C 25.52164077758789 20.4813232421875 24.07950973510742 23.00000190734863 21.76053047180176 23.00000190734863 L 5.239469528198242 23.00000190734863 C 2.920490264892578 23.00000190734863 1.478349685668945 20.4813232421875 2.652219772338867 18.48139190673828 L 10.91275024414062 4.407901763916016 C 11.49242973327637 3.420303344726562 12.49621486663818 2.926502227783203 13.5 2.926502227783203 Z" stroke="none" fill="#fff"/>
    </g>
  </g>
</svg>
