<svg xmlns="http://www.w3.org/2000/svg" width="9.698" height="9.285" viewBox="0 0 9.698 9.285">
  <path id="Path_2960" data-name="Path 2960" d="M143.292,53.7l1.223,2.478a.153.153,0,0,0,.115.084l2.735.4a.154.154,0,0,1,.085.263l-1.979,1.929a.153.153,0,0,0-.045.136l.467,2.724a.153.153,0,0,1-.223.162l-2.446-1.286a.154.154,0,0,0-.143,0l-2.447,1.286a.153.153,0,0,1-.223-.162l.467-2.724a.154.154,0,0,0-.045-.136l-1.979-1.929a.154.154,0,0,1,.085-.263l2.735-.4a.153.153,0,0,0,.115-.084l1.223-2.478A.153.153,0,0,1,143.292,53.7Z" transform="translate(-138.305 -53.118)" fill="none" stroke="#707070" stroke-miterlimit="10" stroke-width="1"/>
</svg>
