<svg xmlns="http://www.w3.org/2000/svg" width="28" height="28.001" viewBox="0 0 28 28.001"><g transform="translate(-1760 -1085)"><path d="M5069,1977a14,14,0,1,1,9.9-4.1A13.907,13.907,0,0,1,5069,1977Zm2.819-14.318c1.448,0,1.448,1.372,1.448,2.374v4.355h2.782V1964.5c0-2.216-.4-4.267-3.34-4.267a2.945,2.945,0,0,0-2.637,1.448h-.036v-1.226h-2.672v8.959h2.785v-4.432C5070.149,1963.844,5070.347,1962.682,5071.819,1962.682Zm-8.991-2.23v8.959h2.79v-8.959Zm1.4-4.452a1.615,1.615,0,1,0,1.615,1.614A1.617,1.617,0,0,0,5064.224,1956Z" transform="translate(-3295 -864)" fill="#fff"/></g></svg>