<svg xmlns="http://www.w3.org/2000/svg" width="48.414" height="36.583" viewBox="0 0 48.414 36.583">
  <g id="Group_698" data-name="Group 698" transform="translate(-84 -3282)">
    <g id="Ellipse_718" data-name="Ellipse 718" transform="translate(84 3282)" fill="#fff" stroke="#707070" stroke-width="2">
      <circle cx="15" cy="15" r="15" stroke="none"/>
      <circle cx="15" cy="15" r="14" fill="none"/>
    </g>
    <g id="Ellipse_719" data-name="Ellipse 719" transform="translate(101 3289)" fill="#fff" stroke="#707070" stroke-width="2">
      <circle cx="3" cy="3" r="3" stroke="none"/>
      <circle cx="3" cy="3" r="2" fill="none"/>
    </g>
    <circle id="Ellipse_717" data-name="Ellipse 717" cx="7.861" cy="7.861" r="7.861" transform="translate(102.721 3301.86)" fill="#fff" stroke="#707070" stroke-miterlimit="10" stroke-width="2"/>
    <path id="Path_3900" data-name="Path 3900" d="M168.62,103.19s-4.7-2.117-6.067,2.515a5.609,5.609,0,0,1-8.786,2.494" transform="translate(-50.418 3204.597)" fill="none" stroke="#707070" stroke-miterlimit="10" stroke-width="2"/>
    <line id="Line_225" data-name="Line 225" x2="40.772" transform="translate(87.882 3317.583)" fill="none" stroke="#707070" stroke-linecap="round" stroke-miterlimit="10" stroke-width="2"/>
    <path id="Path_3901" data-name="Path 3901" d="M166.106,103.618l3.5,3.5,5.2-5.2" transform="translate(-43.811 3203.979)" fill="none" stroke="#707070" stroke-linecap="round" stroke-miterlimit="10" stroke-width="2"/>
    <path id="Path_3902" data-name="Path 3902" d="M4728.346,13215.75l3.929-3.93v11.8" transform="translate(-4633.888 -9920.854)" fill="none" stroke="#707070" stroke-linecap="round" stroke-linejoin="round" stroke-width="2"/>
    <path id="Path_3903" data-name="Path 3903" d="M4730.5,13230.49h5.556" transform="translate(-4635.186 -9927.146)" fill="none" stroke="#707070" stroke-linecap="round" stroke-width="2"/>
  </g>
</svg>
