<svg xmlns="http://www.w3.org/2000/svg" width="50.479" height="45.082" viewBox="0 0 50.479 45.082">
  <g id="Group_691" data-name="Group 691" transform="translate(-87.521 -1974.468)">
    <path id="Path_3276" data-name="Path 3276" d="M107.329,164.457c-3.569-3.57-2.655-10.272,2.041-14.968s11.4-5.609,14.968-2.041" transform="translate(2.09 1833.295)" fill="none" stroke="#707070" stroke-miterlimit="10" stroke-width="2"/>
    <path id="Path_3277" data-name="Path 3277" d="M106.689,163.817c3.57,3.569,10.272,2.655,14.968-2.041s5.61-11.4,2.041-14.968" transform="translate(2.73 1833.934)" fill="none" stroke="#707070" stroke-miterlimit="10" stroke-width="2"/>
    <path id="Path_3275" data-name="Path 3275" d="M127.923,146.061l-.028-.028c-4.68-4.679-13.285-3.662-19.219,2.273-4.2,4.2-5.928,9.689-4.92,14.274a6.526,6.526,0,0,1-1.855,6.657.369.369,0,0,0,0,.513l2.307,2.308a.37.37,0,0,0,.513,0,6.526,6.526,0,0,1,6.657-1.855c4.584,1.008,10.073-.718,14.275-4.92C131.585,159.346,132.6,150.742,127.923,146.061Z" transform="translate(0.694 1832.387)" fill="none" stroke="#707070" stroke-miterlimit="10" stroke-width="2"/>
    <g id="Ellipse_604" data-name="Ellipse 604" transform="translate(116 1990)" fill="#fff" stroke="#707070" stroke-width="2">
      <circle cx="11" cy="11" r="11" stroke="none"/>
      <circle cx="11" cy="11" r="10" fill="none"/>
    </g>
    <path id="Path_3278" data-name="Path 3278" d="M109.051,164.21,95.072,178.189a.846.846,0,0,1-1.194,0l-1.622-1.622a.846.846,0,0,1,0-1.194L106.236,161.4" transform="translate(-3.379 1840.004)" fill="none" stroke="#707070" stroke-miterlimit="10" stroke-width="2"/>
    <line id="Line_111" data-name="Line 111" x2="2.886" y2="2.886" transform="translate(100.356 2003.9)" fill="none" stroke="#707070" stroke-miterlimit="10" stroke-width="2"/>
    <g id="Group_535" data-name="Group 535" transform="translate(122.73 1996.73)">
      <line id="Line_28" data-name="Line 28" x1="9.015" y2="9.015" transform="translate(0)" fill="none" stroke="#707070" stroke-linecap="round" stroke-miterlimit="10" stroke-width="2"/>
      <line id="Line_29" data-name="Line 29" x2="9.015" y2="9.015" transform="translate(0)" fill="none" stroke="#707070" stroke-linecap="round" stroke-miterlimit="10" stroke-width="2"/>
    </g>
  </g>
</svg>
