<svg xmlns="http://www.w3.org/2000/svg" width="77.947" height="63.731" viewBox="0 0 77.947 63.731">
  <g id="Group_686" data-name="Group 686" transform="translate(-76.053 -410.164)">
    <g id="Group_568" data-name="Group 568" transform="translate(-329.744 168.404) rotate(-45)">
      <path id="Path_3254" data-name="Path 3254" d="M109.051,164.21,95.072,178.189a.846.846,0,0,1-1.194,0l-1.622-1.622a.846.846,0,0,1,0-1.194L106.236,161.4" transform="translate(-4.379 339.005)" fill="none" stroke="#707070" stroke-miterlimit="10" stroke-width="2"/>
      <path id="Path_3255" data-name="Path 3255" d="M107.329,164.457c-3.569-3.57-2.655-10.272,2.041-14.968s11.4-5.609,14.968-2.041" transform="translate(1.09 332.295)" fill="none" stroke="#707070" stroke-miterlimit="10" stroke-width="2"/>
      <path id="Path_3256" data-name="Path 3256" d="M106.689,163.817c3.57,3.569,10.272,2.655,14.968-2.041s5.61-11.4,2.041-14.968" transform="translate(1.73 332.935)" fill="none" stroke="#707070" stroke-miterlimit="10" stroke-width="2"/>
      <path id="Path_3257" data-name="Path 3257" d="M127.923,146.061l-.028-.028c-4.68-4.679-13.285-3.662-19.219,2.273-4.2,4.2-5.928,9.689-4.92,14.274a6.526,6.526,0,0,1-1.855,6.657.369.369,0,0,0,0,.513l2.307,2.308a.37.37,0,0,0,.513,0,6.526,6.526,0,0,1,6.657-1.855c4.584,1.008,10.073-.718,14.275-4.92C131.585,159.346,132.6,150.742,127.923,146.061Z" transform="translate(-0.306 331.388)" fill="none" stroke="#707070" stroke-miterlimit="10" stroke-width="2"/>
      <line id="Line_106" data-name="Line 106" x2="2.886" y2="2.886" transform="translate(99.356 502.9)" fill="none" stroke="#707070" stroke-miterlimit="10" stroke-width="2"/>
    </g>
    <g id="Group_685" data-name="Group 685">
      <g id="Ellipse_651" data-name="Ellipse 651" transform="translate(114 440)" fill="none" stroke="#707070" stroke-width="2">
        <circle cx="3.5" cy="3.5" r="3.5" stroke="none"/>
        <circle cx="3.5" cy="3.5" r="2.5" fill="none"/>
      </g>
      <g id="Ellipse_653" data-name="Ellipse 653" transform="translate(114 462)" fill="none" stroke="#707070" stroke-width="2">
        <circle cx="3.5" cy="3.5" r="3.5" stroke="none"/>
        <circle cx="3.5" cy="3.5" r="2.5" fill="none"/>
      </g>
      <g id="Rectangle_610" data-name="Rectangle 610" transform="translate(125 441)" fill="none" stroke="#707070" stroke-width="2">
        <rect width="29" height="6" rx="3" stroke="none"/>
        <rect x="1" y="1" width="27" height="4" rx="2" fill="none"/>
      </g>
      <g id="Rectangle_625" data-name="Rectangle 625" transform="translate(126 452)" fill="none" stroke="#707070" stroke-width="2">
        <rect width="16" height="6" rx="3" stroke="none"/>
        <rect x="1" y="1" width="14" height="4" rx="2" fill="none"/>
      </g>
      <g id="Rectangle_626" data-name="Rectangle 626" transform="translate(125 463)" fill="none" stroke="#707070" stroke-width="2">
        <rect width="22" height="6" rx="3" stroke="none"/>
        <rect x="1" y="1" width="20" height="4" rx="2" fill="none"/>
      </g>
      <path id="Path_3458" data-name="Path 3458" d="M212.016,62.547l1.079,2.188a.133.133,0,0,0,.1.075l2.413.351a.136.136,0,0,1,.077.231l-1.748,1.7a.135.135,0,0,0-.039.121l.412,2.4a.136.136,0,0,1-.2.143l-2.159-1.136a.145.145,0,0,0-.127,0l-2.159,1.136a.136.136,0,0,1-.2-.143l.412-2.4a.135.135,0,0,0-.039-.121l-1.748-1.7a.136.136,0,0,1,.077-.231l2.413-.351a.133.133,0,0,0,.1-.075l1.079-2.188A.138.138,0,0,1,212.016,62.547Z" transform="translate(-94.379 388.222)" fill="none" stroke="#707070" stroke-miterlimit="10" stroke-width="2"/>
    </g>
  </g>
</svg>
