<svg xmlns="http://www.w3.org/2000/svg" width="57.479" height="45.082" viewBox="0 0 57.479 45.082">
  <g id="Group_689" data-name="Group 689" transform="translate(-91.521 -472.469)">
    <g id="Group_687" data-name="Group 687">
      <g id="Group_568" data-name="Group 568" transform="translate(5 -1)">
        <path id="Path_3254" data-name="Path 3254" d="M109.051,164.21,95.072,178.189a.846.846,0,0,1-1.194,0l-1.622-1.622a.846.846,0,0,1,0-1.194L106.236,161.4" transform="translate(-4.379 339.005)" fill="none" stroke="#707070" stroke-miterlimit="10" stroke-width="2"/>
        <path id="Path_3255" data-name="Path 3255" d="M107.329,164.457c-3.569-3.57-2.655-10.272,2.041-14.968s11.4-5.609,14.968-2.041" transform="translate(1.09 332.295)" fill="none" stroke="#707070" stroke-miterlimit="10" stroke-width="2"/>
        <path id="Path_3256" data-name="Path 3256" d="M106.689,163.817c3.57,3.569,10.272,2.655,14.968-2.041s5.61-11.4,2.041-14.968" transform="translate(1.73 332.935)" fill="none" stroke="#707070" stroke-miterlimit="10" stroke-width="2"/>
        <path id="Path_3257" data-name="Path 3257" d="M127.923,146.061l-.028-.028c-4.68-4.679-13.285-3.662-19.219,2.273-4.2,4.2-5.928,9.689-4.92,14.274a6.526,6.526,0,0,1-1.855,6.657.369.369,0,0,0,0,.513l2.307,2.308a.37.37,0,0,0,.513,0,6.526,6.526,0,0,1,6.657-1.855c4.584,1.008,10.073-.718,14.275-4.92C131.585,159.346,132.6,150.742,127.923,146.061Z" transform="translate(-0.306 331.388)" fill="none" stroke="#707070" stroke-miterlimit="10" stroke-width="2"/>
        <line id="Line_106" data-name="Line 106" x2="2.886" y2="2.886" transform="translate(99.356 502.9)" fill="none" stroke="#707070" stroke-miterlimit="10" stroke-width="2"/>
      </g>
      <g id="Ellipse_676" data-name="Ellipse 676" transform="translate(117 483)" fill="#fff" stroke="#707070" stroke-width="2">
        <circle cx="16" cy="16" r="16" stroke="none"/>
        <circle cx="16" cy="16" r="15" fill="none"/>
      </g>
    </g>
    <g id="Group_688" data-name="Group 688">
      <g id="Ellipse_675" data-name="Ellipse 675" transform="translate(120 486)" fill="#fff" stroke="#707070" stroke-width="2">
        <circle cx="13" cy="13" r="13" stroke="none"/>
        <circle cx="13" cy="13" r="12" fill="none"/>
      </g>
      <path id="Path_3756" data-name="Path 3756" d="M3358.643,11873.81v9.061l4.7-5.587" transform="translate(-3225.889 -11381.402)" fill="none" stroke="#707070" stroke-linecap="round" stroke-linejoin="round" stroke-width="2"/>
    </g>
  </g>
</svg>
