<svg xmlns="http://www.w3.org/2000/svg" width="58.484" height="58.325" viewBox="0 0 58.484 58.325">
  <g id="Group_615" data-name="Group 615" transform="translate(-87.619 -964.226)">
    <g id="Group_569" data-name="Group 569" transform="translate(88.631 978.481)">
      <path id="Path_3254" data-name="Path 3254" d="M92.01,164.21l13.979,13.979a.846.846,0,0,0,1.194,0l1.622-1.622a.846.846,0,0,0,0-1.194L94.825,161.4" transform="translate(-66.125 -135.477)" fill="none" stroke="#707070" stroke-miterlimit="10" stroke-width="2"/>
      <path id="Path_3255" data-name="Path 3255" d="M122.16,164.457c3.569-3.57,2.655-10.271-2.041-14.967s-11.4-5.609-14.968-2.041" transform="translate(-100.022 -142.186)" fill="none" stroke="#707070" stroke-miterlimit="10" stroke-width="2"/>
      <path id="Path_3256" data-name="Path 3256" d="M125.875,163.817c-3.57,3.569-10.272,2.655-14.968-2.041s-5.609-11.4-2.041-14.967" transform="translate(-103.737 -141.547)" fill="none" stroke="#707070" stroke-miterlimit="10" stroke-width="2"/>
      <path id="Path_3257" data-name="Path 3257" d="M104.736,146.061l.028-.028c4.68-4.679,13.285-3.662,19.219,2.273,4.2,4.2,5.928,9.689,4.92,14.273a6.526,6.526,0,0,0,1.855,6.657.369.369,0,0,1,0,.513l-2.307,2.308a.37.37,0,0,1-.513,0,6.526,6.526,0,0,0-6.657-1.855c-4.584,1.008-10.073-.718-14.275-4.92C101.074,159.346,100.056,150.741,104.736,146.061Z" transform="translate(-101.796 -143.094)" fill="none" stroke="#707070" stroke-miterlimit="10" stroke-width="2"/>
      <line id="Line_106" data-name="Line 106" x1="2.886" y2="2.886" transform="translate(28.316 28.419)" fill="none" stroke="#707070" stroke-miterlimit="10" stroke-width="2"/>
    </g>
    <ellipse id="Ellipse_629" data-name="Ellipse 629" cx="6.259" cy="6.259" rx="6.259" ry="6.259" transform="translate(119.443 965.226)" fill="none" stroke="#707070" stroke-miterlimit="10" stroke-width="2"/>
    <path id="Path_3312" data-name="Path 3312" d="M7.819,9.748S3.76,9.155,4.826,5.46A4.466,4.466,0,0,0,0,.02" transform="translate(122.167 966.301)" fill="none" stroke="#707070" stroke-miterlimit="10" stroke-width="2"/>
    <path id="Path_3316" data-name="Path 3316" d="M3553.39,10198.333s1.6-10.829,8.769-16.975" transform="matrix(0.966, 0.259, -0.259, 0.966, -689.696, -9780.354)" fill="none" stroke="#707070" stroke-linecap="round" stroke-width="2"/>
    <path id="Path_3317" data-name="Path 3317" d="M3593.711,10181.109s-20.7-14.385-42.333-2.105" transform="translate(-3449 -9188)" fill="none" stroke="#707070" stroke-linecap="round" stroke-width="2" stroke-dasharray="4"/>
  </g>
</svg>
