<svg xmlns="http://www.w3.org/2000/svg" width="53.158" height="46.731" viewBox="0 0 53.158 46.731">
  <g id="Group_690" data-name="Group 690" transform="translate(-87.521 -1623.468)">
    <path id="Path_3265" data-name="Path 3265" d="M109.051,164.21,95.072,178.189a.846.846,0,0,1-1.194,0l-1.622-1.622a.846.846,0,0,1,0-1.194L106.236,161.4" transform="translate(-3.379 1489.004)" fill="none" stroke="#707070" stroke-miterlimit="10" stroke-width="2"/>
    <path id="Path_3266" data-name="Path 3266" d="M107.329,164.457c-3.569-3.57-2.655-10.272,2.041-14.968s11.4-5.609,14.968-2.041" transform="translate(2.09 1482.295)" fill="none" stroke="#707070" stroke-miterlimit="10" stroke-width="2"/>
    <path id="Path_3267" data-name="Path 3267" d="M106.689,163.817c3.57,3.569,10.272,2.655,14.968-2.041s5.61-11.4,2.041-14.968" transform="translate(2.73 1482.934)" fill="none" stroke="#707070" stroke-miterlimit="10" stroke-width="2"/>
    <path id="Path_3268" data-name="Path 3268" d="M127.923,146.061l-.028-.028c-4.68-4.679-13.285-3.662-19.219,2.273-4.2,4.2-5.928,9.689-4.92,14.274a6.526,6.526,0,0,1-1.855,6.657.369.369,0,0,0,0,.513l2.307,2.308a.37.37,0,0,0,.513,0,6.526,6.526,0,0,1,6.657-1.855c4.584,1.008,10.073-.718,14.275-4.92C131.585,159.346,132.6,150.742,127.923,146.061Z" transform="translate(0.694 1481.387)" fill="none" stroke="#707070" stroke-miterlimit="10" stroke-width="2"/>
    <line id="Line_110" data-name="Line 110" x2="2.886" y2="2.886" transform="translate(100.356 1652.9)" fill="none" stroke="#707070" stroke-miterlimit="10" stroke-width="2"/>
    <g id="Group_533" data-name="Group 533" transform="translate(-102 662.944)">
      <rect id="Rectangle_559" data-name="Rectangle 559" width="14.459" height="6.638" rx="0.503" transform="translate(223.267 999.617)" fill="#fff" stroke="#707070" stroke-linecap="round" stroke-miterlimit="10" stroke-width="2"/>
      <path id="Path_3261" data-name="Path 3261" d="M264.8,63.581a5.5,5.5,0,0,1,8.958.015" transform="translate(-38.774 935.758)" fill="#fff" stroke="#707070" stroke-linecap="round" stroke-miterlimit="10" stroke-width="2"/>
      <path id="Path_3262" data-name="Path 3262" d="M263.065,54.389c-1.237-.28-2.4-.333-3.326-2.29a11.209,11.209,0,0,1-1.057-4.079,1.1,1.1,0,0,1,1.093-1.154c1.108-.015,1.987-.047,1.987-.047" transform="translate(-39.379 934.329)" fill="#fff" stroke="#707070" stroke-linecap="round" stroke-miterlimit="10" stroke-width="2"/>
      <path id="Path_3263" data-name="Path 3263" d="M275.051,54.689c1.237-.281,2.4-.389,3.329-2.346a11.208,11.208,0,0,0,1.057-4.079,1.1,1.1,0,0,0-1.093-1.154c-1.108-.015-1.987-.047-1.987-.047" transform="translate(-37.761 934.353)" fill="#fff" stroke="#707070" stroke-linecap="round" stroke-miterlimit="10" stroke-width="2"/>
      <path id="Path_3264" data-name="Path 3264" d="M277.228,45.734a.376.376,0,0,1,.382.376c-.047,4.547-.994,13.14-8.02,13.14s-7.973-8.593-8.019-13.14a.375.375,0,0,1,.382-.376Z" transform="translate(-39.093 934.222)" fill="#fff" stroke="#707070" stroke-linecap="round" stroke-miterlimit="10" stroke-width="2"/>
      <circle id="Ellipse_597" data-name="Ellipse 597" cx="1.564" cy="1.564" r="1.564" transform="translate(228.933 993.913)" fill="#fff" stroke="#707070" stroke-linecap="round" stroke-miterlimit="10" stroke-width="2"/>
    </g>
  </g>
</svg>
