<svg xmlns="http://www.w3.org/2000/svg" width="23.203" height="20" viewBox="0 0 23.203 20">
  <g id="Group_416" data-name="Group 416" transform="translate(-1871.797 -921.979)">
    <g id="Rectangle_413" data-name="Rectangle 413" transform="translate(1881 921.979)" fill="none" stroke="#fff" stroke-width="1">
      <rect width="14" height="18" rx="1" stroke="none"/>
      <rect x="0.5" y="0.5" width="13" height="17" rx="0.5" fill="none"/>
    </g>
    <g id="Rectangle_412" data-name="Rectangle 412" transform="translate(1879 923.979)" fill="#505050" stroke="#fff" stroke-width="1">
      <rect width="13" height="18" rx="1" stroke="none"/>
      <rect x="0.5" y="0.5" width="12" height="17" rx="0.5" fill="none"/>
    </g>
    <g id="Group_398" data-name="Group 398" transform="translate(1871.797 928.992)">
      <g id="Group_397" data-name="Group 397" transform="translate(0 0)">
        <g id="Path_3138" data-name="Path 3138" fill="#505050">
          <path d="M 5.995822429656982 11.49164199829102 C 2.965412378311157 11.49164199829102 0.5000024437904358 9.026232719421387 0.5000024437904358 5.995822429656982 C 0.5000024437904358 2.965412378311157 2.965412378311157 0.5000024437904358 5.995822429656982 0.5000024437904358 C 9.026232719421387 0.5000024437904358 11.49164199829102 2.965412378311157 11.49164199829102 5.995822429656982 C 11.49164199829102 9.026232719421387 9.026232719421387 11.49164199829102 5.995822429656982 11.49164199829102 Z" stroke="none"/>
          <path d="M 5.995822429656982 1.000002861022949 C 3.241122245788574 1.000002861022949 1.000002861022949 3.241122245788574 1.000002861022949 5.995822429656982 C 1.000002861022949 8.750522613525391 3.241122245788574 10.99164199829102 5.995822429656982 10.99164199829102 C 8.750522613525391 10.99164199829102 10.99164199829102 8.750522613525391 10.99164199829102 5.995822429656982 C 10.99164199829102 3.241122245788574 8.750522613525391 1.000002861022949 5.995822429656982 1.000002861022949 M 5.995822429656982 2.86102294921875e-06 C 9.307222366333008 2.86102294921875e-06 11.99164199829102 2.684422492980957 11.99164199829102 5.995822429656982 C 11.99164199829102 9.307222366333008 9.307222366333008 11.99164199829102 5.995822429656982 11.99164199829102 C 2.684422492980957 11.99164199829102 2.86102294921875e-06 9.307222366333008 2.86102294921875e-06 5.995822429656982 C 2.86102294921875e-06 2.684422492980957 2.684422492980957 2.86102294921875e-06 5.995822429656982 2.86102294921875e-06 Z" stroke="none" fill="#fff"/>
        </g>
        <path id="Path_3136" data-name="Path 3136" d="M-3074.045,2054.759v6.8" transform="translate(3079.907 -2052.101)" fill="none" stroke="#fff" stroke-linecap="round" stroke-width="1"/>
        <path id="Path_3137" data-name="Path 3137" d="M0,0V6.8" transform="translate(9.263 6.06) rotate(90)" fill="none" stroke="#fff" stroke-linecap="round" stroke-width="1"/>
      </g>
    </g>
  </g>
</svg>
