<svg xmlns="http://www.w3.org/2000/svg" width="370.769" height="661.127" viewBox="0 0 370.769 661.127">
  <g id="Group_369" data-name="Group 369" transform="translate(-1490.517 -172.229)">
    <g id="Rectangle_61" data-name="Rectangle 61" transform="translate(1847.554 172.229) rotate(90)" fill="none" stroke="#fff" stroke-width="1">
      <rect width="661.127" height="46.918" stroke="none"/>
      <rect x="0.5" y="0.5" width="660.127" height="45.918" fill="none"/>
    </g>
    <g id="Rectangle_252" data-name="Rectangle 252" transform="translate(1554.554 172.229) rotate(90)" fill="none" stroke="#fff" stroke-width="1">
      <rect width="661.127" height="46.918" stroke="none"/>
      <rect x="0.5" y="0.5" width="660.127" height="45.918" fill="none"/>
    </g>
    <g id="Rectangle_62" data-name="Rectangle 62" transform="translate(1801.78 502.278) rotate(90)" fill="none" stroke="#fff" stroke-width="1">
      <rect width="178.905" height="124.734" stroke="none"/>
      <rect x="0.5" y="0.5" width="177.905" height="123.734" fill="none"/>
    </g>
    <g id="Rectangle_64" data-name="Rectangle 64" transform="translate(1678.19 324.401) rotate(90)" fill="none" stroke="#fff" stroke-width="1">
      <rect width="178.905" height="124.734" stroke="none"/>
      <rect x="0.5" y="0.5" width="177.905" height="123.734" fill="none"/>
    </g>
    <g id="Rectangle_65" data-name="Rectangle 65" transform="translate(1678.19 502.278) rotate(90)" fill="none" stroke="#fff" stroke-width="1">
      <rect width="178.905" height="124.734" stroke="none"/>
      <rect x="0.5" y="0.5" width="177.905" height="123.734" fill="none"/>
    </g>
    <g id="Rectangle_67" data-name="Rectangle 67" transform="translate(1801.78 172.229) rotate(90)" fill="none" stroke="#fff" stroke-width="1">
      <rect width="153.2" height="248.324" stroke="none"/>
      <rect x="0.5" y="0.5" width="152.2" height="247.324" fill="none"/>
    </g>
    <g id="Rectangle_63" data-name="Rectangle 63" transform="translate(1801.78 680.155) rotate(90)" fill="none" stroke="#fff" stroke-width="1">
      <rect width="153.2" height="248.324" stroke="none"/>
      <rect x="0.5" y="0.5" width="152.2" height="247.324" fill="none"/>
    </g>
    <path id="Path_2364" data-name="Path 2364" d="M0,0V358.477" transform="translate(1854.716 502.278) rotate(90)" fill="none" stroke="#fff" stroke-width="2"/>
    <g id="Ellipse_36" data-name="Ellipse 36" transform="translate(1861.286 499.193) rotate(90)" fill="none" stroke="#fff" stroke-width="2">
      <circle cx="3.433" cy="3.433" r="3.433" stroke="none"/>
      <circle cx="3.433" cy="3.433" r="2.433" fill="none"/>
    </g>
    <g id="Ellipse_38" data-name="Ellipse 38" transform="translate(1497.383 499.193) rotate(90)" fill="none" stroke="#fff" stroke-width="2">
      <circle cx="3.433" cy="3.433" r="3.433" stroke="none"/>
      <circle cx="3.433" cy="3.433" r="2.433" fill="none"/>
    </g>
    <path id="Path_2441" data-name="Path 2441" d="M2372.057,223.428v5.429" transform="translate(-694.374 604.038)" fill="none" stroke="#fff" stroke-width="1"/>
    <path id="Path_2442" data-name="Path 2442" d="M2372.057,223.428v5.429" transform="translate(-694.374 -50.529)" fill="none" stroke="#fff" stroke-width="1"/>
  </g>
</svg>
