<svg xmlns="http://www.w3.org/2000/svg" xmlns:xlink="http://www.w3.org/1999/xlink" width="474" height="827.5" viewBox="0 0 474 827.5">
  <defs>
    <pattern id="pattern" preserveAspectRatio="xMidYMid slice" width="100%" height="100%" viewBox="0 0 600 400">
      <image width="600" height="400" xlink:href="icon-field-serve-image.jpg"/>
    </pattern>
    <pattern id="pattern-2" preserveAspectRatio="xMidYMid slice" width="100%" height="100%" viewBox="0 0 899 632">
      <image width="899" height="632" xlink:href="icon-field-serve-image2.jpg"/>
    </pattern>
  </defs>
  <g id="tennis-field" transform="translate(-19 -54.5)">
    <g id="field-area-filled">
      <rect id="area-opp-z1-filled" width="173" height="406" rx="2" transform="translate(47.5 466.5) rotate(-90)" fill="#fff" opacity="0.23"/>
      <rect id="area-opp-z2-filled" width="73" height="406" rx="2" transform="translate(47.5 291.5) rotate(-90)" fill="#fff" opacity="0.23"/>
      <rect id="area-opp-z3-filled" width="75" height="406" rx="2" transform="translate(47.5 216.5) rotate(-90)" fill="#fff" opacity="0.23"/>
      <rect id="area-opp-z4-filled" width="46" height="406" rx="2" transform="translate(47.5 140.5) rotate(-90)" fill="#fff" opacity="0.23"/>
      <rect id="area-opp-z5-filled" width="39" height="406" rx="2" transform="translate(47.5 93.5) rotate(-90)" fill="#fff" opacity="0.23"/>
      <rect id="area-opp-a-filled" width="59" height="324" rx="2" transform="translate(126 143)" fill="#fff" opacity="0.23"/>
      <rect id="area-opp-d-filled" width="59" height="324" rx="2" transform="translate(310 143)" fill="#fff" opacity="0.23"/>
      <rect id="area-opp-b-filled" width="59" height="324" rx="2" transform="translate(187 143)" fill="#fff" opacity="0.23"/>
      <rect id="area-opp-c-filled" width="59" height="324" rx="2" transform="translate(249 143)" fill="#fff" opacity="0.23"/>
    </g>
    <g id="field-area">
      <g id="area-serve-ad" >
        <ellipse id="bounce-serve-ad" cx="4.577" cy="4.577" rx="4.577" ry="4.577" transform="translate(204.105 804.874)" fill="#fff"/>
        <path id="area" d="M0,0H124a0,0,0,0,1,0,0V17a3,3,0,0,1-3,3H3a3,3,0,0,1-3-3V0A0,0,0,0,1,0,0Z" transform="translate(123 801)" fill="#fff" opacity="0.31"/>
        <text id="area-text" transform="translate(131 814)" fill="#fff" font-size="9" font-family="Roboto-Bold, Roboto" font-weight="700"><tspan x="0" y="0">AD</tspan></text>
      </g>
      <g id="area-serve-deuce">
        <ellipse id="bounce-serve-deuce" cx="4.577" cy="4.577" rx="4.577" ry="4.577" transform="translate(280.105 804.874)" fill="#fff"/>
        <path id="area-2" data-name="area" d="M0,0H124a0,0,0,0,1,0,0V17a3,3,0,0,1-3,3H3a3,3,0,0,1-3-3V0A0,0,0,0,1,0,0Z" transform="translate(249 801)" fill="#fff" opacity="0.31"/>
        <text id="area-text-2" data-name="area-text" transform="translate(334 814)" fill="#fff" font-size="9" font-family="Roboto-Bold, Roboto" font-weight="700"><tspan x="0" y="0">DEUCE</tspan></text>
      </g>
      <g id="area-opp-1" transform="translate(371.779 140.229) rotate(90)" fill="none" stroke="#fff" stroke-width="1">
        <rect width="153.2" height="248.324" stroke="none"/>
        <rect x="0.5" y="0.5" width="152.2" height="247.324" fill="none"/>
      </g>
      <g id="area-opp-2-group">
        <g id="area-opp-2-filled-group">
          <g id="area-opp-2-filled-s5">
            <path id="area-3" data-name="area" d="M2,0H27a2,2,0,0,1,2,2V170a2,2,0,0,1-2,2H2a2,2,0,0,1-2-2V2A2,2,0,0,1,2,0Z" transform="translate(250 295)" fill="#fff" opacity="0.23"/>
            <text id="area-text-3" data-name="area-text" transform="translate(261 311)" fill="#fff" font-size="9" font-family="Roboto-Bold, Roboto" font-weight="700"><tspan x="0" y="0">5</tspan></text>
            <ellipse id="bounce-s5" cx="4.577" cy="4.577" rx="4.577" ry="4.577" transform="translate(259.355 377.708)" fill="#fff"/>
          </g>
          <g id="area-opp-2-filled-s6">
            <rect id="area-4" data-name="area" width="28" height="172" rx="2" transform="translate(280 295)" fill="#fff" opacity="0.23"/>
            <text id="area-text-4" data-name="area-text" transform="translate(292 311)" fill="#fff" font-size="9" font-family="Roboto-Bold, Roboto" font-weight="700"><tspan x="0" y="0">6</tspan></text>
            <ellipse id="bounce-s6" cx="4.577" cy="4.577" rx="4.577" ry="4.577" transform="translate(289.355 377.708)" fill="#fff"/>
          </g>
          <g id="area-opp-2-filled-s7">
            <rect id="area-5" data-name="area" width="29" height="172" rx="2" transform="translate(309 295)" fill="#fff" opacity="0.23"/>
            <text id="area-text-5" data-name="area-text" transform="translate(322 311)" fill="#fff" font-size="9" font-family="Roboto-Bold, Roboto" font-weight="700"><tspan x="0" y="0">7</tspan></text>
            <ellipse id="bounce-s7" cx="4.577" cy="4.577" rx="4.577" ry="4.577" transform="translate(319.355 377.708)" fill="#fff"/>
          </g>
          <g id="area-opp-2-filled-s8">
            <rect id="area-6" data-name="area" width="28" height="172" rx="2" transform="translate(339 295)" fill="#fff" opacity="0.23"/>
            <text id="area-text-6" data-name="area-text" transform="translate(351 311)" fill="#fff" font-size="9" font-family="Roboto-Bold, Roboto" font-weight="700"><tspan x="0" y="0">8</tspan></text>
            <ellipse id="bounce-s8" cx="4.577" cy="4.577" rx="4.577" ry="4.577" transform="translate(348.355 377.708)" fill="#fff"/>
          </g>
        </g>
        <path id="area-opp-2-filled" d="M1.633,1.158l167.94-.037a2,2,0,0,1,2,2l-.016,113.031a2,2,0,0,1-2,2l-168,.021a2,2,0,0,1-2-2L-.367,3.158A2,2,0,0,1,1.633,1.158Z" transform="translate(368.191 295.4) rotate(90)" fill="#fff" opacity="0.23"/>
        <g id="area-opp-2" transform="translate(372.191 292.4) rotate(90)" fill="none" stroke="#fff" stroke-width="1">
          <rect width="178.905" height="124.734" stroke="none"/>
          <rect x="0.5" y="0.5" width="177.905" height="123.734" fill="none"/>
        </g>
        <ellipse id="bounce-s5_8" cx="4.577" cy="4.577" rx="4.577" ry="4.577" transform="translate(304.355 377.708)" fill="#fff"/>
      </g>
      <g id="area-opp-3-group">
        <g id="area-opp-3-group-2" data-name="area-opp-3-group">
          <g id="area-opp-3-filled-s1">
            <path id="area-7" data-name="area" d="M2,0H27a2,2,0,0,1,2,2V170a2,2,0,0,1-2,2H2a2,2,0,0,1-2-2V2A2,2,0,0,1,2,0Z" transform="translate(127 295)" fill="#fff" opacity="0.23"/>
            <text id="area-text-7" data-name="area-text" transform="translate(138 311)" fill="#fff" font-size="9" font-family="Roboto-Bold, Roboto" font-weight="700"><tspan x="0" y="0">1</tspan></text>
            <ellipse id="bounce-s1" cx="4.577" cy="4.577" rx="4.577" ry="4.577" transform="translate(137.355 377.708)" fill="#fff"/>
          </g>
          <g id="area-opp-3-filled-s2">
            <rect id="area-8" data-name="area" width="28" height="172" rx="2" transform="translate(157 295)" fill="#fff" opacity="0.23"/>
            <text id="area-text-8" data-name="area-text" transform="translate(169 311)" fill="#fff" font-size="9" font-family="Roboto-Bold, Roboto" font-weight="700"><tspan x="0" y="0">2</tspan></text>
            <ellipse id="bounce-s2" cx="4.577" cy="4.577" rx="4.577" ry="4.577" transform="translate(167.355 377.708)" fill="#fff"/>
          </g>
          <g id="area-opp-3-filled-s3">
            <rect id="area-9" data-name="area" width="29" height="172" rx="2" transform="translate(186 295)" fill="#fff" opacity="0.23"/>
            <text id="area-text-9" data-name="area-text" transform="translate(199 311)" fill="#fff" font-size="9" font-family="Roboto-Bold, Roboto" font-weight="700"><tspan x="0" y="0">3</tspan></text>
            <ellipse id="bounce-s3" cx="4.577" cy="4.577" rx="4.577" ry="4.577" transform="translate(197.355 377.708)" fill="#fff"/>
          </g>
          <g id="area-opp-3-filled-s4">
            <rect id="area-10" data-name="area" width="28" height="172" rx="2" transform="translate(216 295)" fill="#fff" opacity="0.23"/>
            <text id="area-text-10" data-name="area-text" transform="translate(228 311)" fill="#fff" font-size="9" font-family="Roboto-Bold, Roboto" font-weight="700"><tspan x="0" y="0">4</tspan></text>
            <ellipse id="bounce-s4" cx="4.577" cy="4.577" rx="4.577" ry="4.577" transform="translate(226.355 377.708)" fill="#fff"/>
          </g>
        </g>
        <path id="area-opp-3-filled" d="M1.653.15,169.61.182a2,2,0,0,1,2,2l-.034,112.959a2,2,0,0,1-2,2L1.6,117.162a2,2,0,0,1-2-2L-.347,2.15A2,2,0,0,1,1.653.15Z" transform="translate(244.191 295.4) rotate(90)" fill="#fff" opacity="0.23"/>
        <g id="area-opp-3" transform="translate(248.191 292.4) rotate(90)" fill="none" stroke="#fff" stroke-width="1">
          <rect width="178.905" height="124.734" stroke="none"/>
          <rect x="0.5" y="0.5" width="177.905" height="123.734" fill="none"/>
        </g>
        <ellipse id="bounce-s1_4" cx="4.577" cy="4.577" rx="4.577" ry="4.577" transform="translate(182.355 377.708)" fill="#fff"/>
      </g>
      <g id="area-opp-4" transform="translate(417.555 140.229) rotate(90)" fill="none" stroke="#fff" stroke-width="1">
        <rect width="331.127" height="46.918" stroke="none"/>
        <rect x="0.5" y="0.5" width="330.127" height="45.918" fill="none"/>
      </g>
      <g id="area-opp-5" transform="translate(124.555 140.229) rotate(90)" fill="none" stroke="#fff" stroke-width="1">
        <rect width="331.127" height="46.918" stroke="none"/>
        <rect x="0.5" y="0.5" width="330.127" height="45.918" fill="none"/>
      </g>
      <g id="area-ref-1" transform="translate(371.779 648.155) rotate(90)" fill="none" stroke="#fff" stroke-width="1">
        <rect width="153.2" height="248.324" stroke="none"/>
        <rect x="0.5" y="0.5" width="152.2" height="247.324" fill="none"/>
      </g>
      <g id="area-ref-2" transform="translate(248.191 470.278) rotate(90)" fill="none" stroke="#fff" stroke-width="1">
        <rect width="178.905" height="124.734" stroke="none"/>
        <rect x="0.5" y="0.5" width="177.905" height="123.734" fill="none"/>
      </g>
      <g id="area-ref-3" transform="translate(372.191 470.278) rotate(90)" fill="none" stroke="#fff" stroke-width="1">
        <rect width="178.905" height="124.734" stroke="none"/>
        <rect x="0.5" y="0.5" width="177.905" height="123.734" fill="none"/>
      </g>
      <g id="area-ref-4" transform="translate(124.555 470.229) rotate(90)" fill="none" stroke="#fff" stroke-width="1">
        <rect width="331.127" height="46.918" stroke="none"/>
        <rect x="0.5" y="0.5" width="330.127" height="45.918" fill="none"/>
      </g>
      <g id="area-ref-5" transform="translate(417.555 470.229) rotate(90)" fill="none" stroke="#fff" stroke-width="1">
        <rect width="331.127" height="46.918" stroke="none"/>
        <rect x="0.5" y="0.5" width="330.127" height="45.918" fill="none"/>
      </g>
    </g>
    <g id="field-decorations">
      <g id="field-decoration-net">
        <path id="field-decoration-net-net" d="M0,0V358.477" transform="translate(424.717 470.278) rotate(90)" fill="none" stroke="#fff" stroke-width="2"/>
        <g id="field-decoration-net-stake-right" transform="translate(431.285 467.193) rotate(90)" fill="none" stroke="#fff" stroke-width="2">
          <circle cx="3.433" cy="3.433" r="3.433" stroke="none"/>
          <circle cx="3.433" cy="3.433" r="2.433" fill="none"/>
        </g>
        <g id="field-decoration-net-stake-left" transform="translate(67.383 467.193) rotate(90)" fill="none" stroke="#fff" stroke-width="2">
          <circle cx="3.433" cy="3.433" r="3.433" stroke="none"/>
          <circle cx="3.433" cy="3.433" r="2.433" fill="none"/>
        </g>
      </g>
      <path id="field-decoration-ref" d="M2372.057,223.428v5.429" transform="translate(-2124.373 572.038)" fill="none" stroke="#fff" stroke-width="1"/>
      <path id="field-decoration-opp" d="M2372.057,223.428v5.429" transform="translate(-2124.373 -82.529)" fill="none" stroke="#fff" stroke-width="1"/>
    </g>
    <g id="bounces">
      <ellipse id="bounce-ace-s5" cx="4.577" cy="4.577" rx="4.577" ry="4.577" transform="translate(273 66.874)" fill="#fff"/>
      <ellipse id="bounce-ace-s1" cx="4.577" cy="4.577" rx="4.577" ry="4.577" transform="translate(19 66.874)" fill="#fff"/>
      <ellipse id="bounce-ace-s6" cx="4.577" cy="4.577" rx="4.577" ry="4.577" transform="translate(338 66.874)" fill="#fff"/>
      <ellipse id="bounce-ace-s2" cx="4.577" cy="4.577" rx="4.577" ry="4.577" transform="translate(84 66.874)" fill="#fff"/>
      <ellipse id="bounce-ace-s7" cx="4.577" cy="4.577" rx="4.577" ry="4.577" transform="translate(404 66.874)" fill="#fff"/>
      <ellipse id="bounce-ace-s3" cx="4.577" cy="4.577" rx="4.577" ry="4.577" transform="translate(150 66.874)" fill="#fff"/>
      <ellipse id="bounce-ace-s8" cx="4.577" cy="4.577" rx="4.577" ry="4.577" transform="translate(469 66.874)" fill="#fff"/>
      <ellipse id="bounce-ace-s4" cx="4.577" cy="4.577" rx="4.577" ry="4.577" transform="translate(215 66.874)" fill="#fff"/>
    </g>
    <g id="player-opp" transform="translate(62 -3)">
      <g id="player-opp-bh">
        <rect id="player-opp-bh-bg" width="61" height="32" rx="4" transform="translate(370 93)" fill="#8d6dbe"/>
        <g id="player-opp-bh-text">
          <text id="player-opp-bh-text-bh" transform="translate(407 117)" fill="#fff" font-size="10" font-family="Roboto-Bold, Roboto" font-weight="700"><tspan x="0" y="0">BH</tspan></text>
          <g id="player-opp-bh-text-icon" transform="translate(393.611 108.982)">
            <path id="Tracciato_2415" data-name="Tracciato 2415" d="M183.367,132.2l-3.3,3.3a.2.2,0,0,1-.282,0l-.383-.383a.2.2,0,0,1,0-.282l3.3-3.3" transform="translate(-179.341 -125.414)" fill="none" stroke="#fff" stroke-miterlimit="10" stroke-width="0.5"/>
            <path id="Tracciato_2416" data-name="Tracciato 2416" d="M187.87,126.711c-.755-.738-.562-2.124.432-3.095a2.337,2.337,0,0,1,3.165-.422" transform="translate(-182.748 -121.7)" fill="none" stroke="#fff" stroke-miterlimit="10" stroke-width="0.5"/>
            <path id="Tracciato_2417" data-name="Tracciato 2417" d="M188.207,127.04a2.338,2.338,0,0,0,3.165-.422c.994-.971,1.187-2.357.432-3.1" transform="translate(-183.085 -122.029)" fill="none" stroke="#fff" stroke-miterlimit="10" stroke-width="0.5"/>
            <path id="Tracciato_2418" data-name="Tracciato 2418" d="M191.181,121.639l-.007-.007c-1.105-1.106-3.138-.865-4.54.537a3.766,3.766,0,0,0-1.162,3.373,1.543,1.543,0,0,1-.438,1.573.087.087,0,0,0,0,.121l.545.545a.087.087,0,0,0,.121,0,1.542,1.542,0,0,1,1.572-.438,3.766,3.766,0,0,0,3.373-1.162C192.046,124.777,192.287,122.744,191.181,121.639Z" transform="translate(-181.734 -120.938)" fill="none" stroke="#fff" stroke-miterlimit="10" stroke-width="0.5"/>
          </g>
          <text id="player-opp-bh-text-return" transform="translate(392 106)" fill="#fff" font-size="10" font-family="Roboto-Bold, Roboto" font-weight="700"><tspan x="0" y="0">Return</tspan></text>
        </g>
      </g>
      <g id="player-opp-fh">
        <rect id="player-opp-fh-bg" width="60" height="32" rx="4" transform="translate(310 93)" fill="#8d6dbe"/>
        <g id="player-opp-fh-text">
          <text id="player-opp-fh-text-fh" transform="translate(321 117)" fill="#fff" font-size="10" font-family="Roboto-Bold, Roboto" font-weight="700"><tspan x="0" y="0">FH</tspan></text>
          <g id="player-opp-fh-text-icon" transform="translate(337.383 108.982)">
            <path id="Tracciato_2415-2" data-name="Tracciato 2415" d="M179.341,132.2l3.3,3.3a.2.2,0,0,0,.282,0l.383-.383a.2.2,0,0,0,0-.282l-3.3-3.3" transform="translate(-173.226 -125.413)" fill="none" stroke="#fff" stroke-miterlimit="10" stroke-width="0.5"/>
            <path id="Tracciato_2416-2" data-name="Tracciato 2416" d="M191.006,126.711c.755-.738.562-2.124-.432-3.095a2.337,2.337,0,0,0-3.165-.422" transform="translate(-185.987 -121.7)" fill="none" stroke="#fff" stroke-miterlimit="10" stroke-width="0.5"/>
            <path id="Tracciato_2417-2" data-name="Tracciato 2417" d="M192.264,127.04a2.338,2.338,0,0,1-3.165-.422c-.994-.971-1.187-2.357-.432-3.1" transform="translate(-187.245 -122.029)" fill="none" stroke="#fff" stroke-miterlimit="10" stroke-width="0.5"/>
            <path id="Tracciato_2418-2" data-name="Tracciato 2418" d="M185.7,121.639l.007-.007c1.105-1.106,3.138-.865,4.54.537a3.766,3.766,0,0,1,1.162,3.373,1.543,1.543,0,0,0,.438,1.573.087.087,0,0,1,0,.121l-.545.545a.087.087,0,0,1-.121,0,1.542,1.542,0,0,0-1.572-.438,3.766,3.766,0,0,1-3.373-1.162C184.838,124.777,184.6,122.744,185.7,121.639Z" transform="translate(-185.009 -120.938)" fill="none" stroke="#fff" stroke-miterlimit="10" stroke-width="0.5"/>
          </g>
          <text id="player-opp-fh-text-return" transform="translate(315 106)" fill="#fff" font-size="10" font-family="Roboto-Bold, Roboto" font-weight="700"><tspan x="0" y="0">Return</tspan></text>
        </g>
      </g>
      <g id="player-opp-icon">
        <g id="player-opp-icon-border" transform="translate(348 86)" fill="#8d6dbe" stroke="#8d6dbe" stroke-width="5">
          <circle cx="22" cy="22" r="22" stroke="none"/>
          <circle cx="22" cy="22" r="19.5" fill="none"/>
        </g>
        <circle id="player-opp-icon-image" cx="19" cy="19" r="19" transform="translate(351 89)" fill="url(#pattern)"/>
      </g>
      <ellipse id="bounce-player-opp-bh" cx="4.577" cy="4.577" rx="4.577" ry="4.577" transform="translate(399.105 120.874)" fill="#fff"/>
      <ellipse id="bounce-player-opp-fh" cx="4.577" cy="4.577" rx="4.577" ry="4.577" transform="translate(329.105 120.874)" fill="#fff"/>
      <ellipse id="bounce-player-opp" cx="4.577" cy="4.577" rx="4.577" ry="4.577" transform="translate(366.105 125.874)" fill="#fff"/>
    </g>
    <g id="player-ref" transform="translate(-1451 -8)">
      <g id="player-ref-ad-stats">
        <rect id="player-ref-ad-stats-bg" width="107" height="39" rx="4" transform="translate(1620 845)" fill="#019dba"/>
        <g id="player-ref-ad-stats-smartdata_subtype">
          <g id="player-ref-ad-stats-smartdata_subtype-icon" transform="translate(1446 248)">
            <path id="Tracciato_2403" data-name="Tracciato 2403" d="M120.963,101.181a1.9,1.9,0,0,1,3.65.01" transform="translate(69.775 524.312)" fill="none" stroke="#fff" stroke-linecap="round" stroke-miterlimit="10" stroke-width="1"/>
            <path id="Tracciato_2404" data-name="Tracciato 2404" d="M116.634,86.605a1.522,1.522,0,0,1-1.355-.933,4.558,4.558,0,0,1-.431-1.662.448.448,0,0,1,.445-.47c.452-.006.81-.019.81-.019" transform="translate(73.153 533.965)" fill="none" stroke="#fff" stroke-linecap="round" stroke-miterlimit="10" stroke-width="1"/>
            <path id="Tracciato_2405" data-name="Tracciato 2405" d="M131.218,86.872a1.552,1.552,0,0,0,1.356-.955,4.562,4.562,0,0,0,.431-1.662.449.449,0,0,0-.445-.47c-.451-.006-.81-.019-.81-.019" transform="translate(64.111 533.83)" fill="none" stroke="#fff" stroke-linecap="round" stroke-miterlimit="10" stroke-width="1"/>
            <path id="Tracciato_2406" data-name="Tracciato 2406" d="M124.117,82.436a.153.153,0,0,1,.155.153c-.019,1.853-.405,5.354-3.267,5.354s-3.248-3.5-3.267-5.354a.153.153,0,0,1,.155-.153Z" transform="translate(71.556 534.564)" fill="none" stroke="#fff" stroke-linecap="round" stroke-miterlimit="10" stroke-width="1"/>
            <ellipse id="Ellisse_76" data-name="Ellisse 76" cx="0.637" cy="0.637" rx="0.637" ry="0.637" transform="translate(191.924 622.736)" fill="none" stroke="#fff" stroke-linecap="round" stroke-miterlimit="10" stroke-width="1"/>
            <g id="Rettangolo_94" data-name="Rettangolo 94" transform="translate(189 625)" fill="none" stroke="#fff" stroke-linejoin="round" stroke-width="1">
              <rect width="7" height="3" stroke="none"/>
              <rect x="0.5" y="0.5" width="6" height="2" fill="none"/>
            </g>
          </g>
          <text id="player-ref-ad-stats-smartdata_subtype-text" transform="translate(1649 874)" fill="#fff" font-size="10" font-family="Roboto-Bold, Roboto" font-weight="700"><tspan x="0" y="0">Won &amp; Lost</tspan></text>
        </g>
        <g id="player-ref-ad-stats-common">
          <g id="player-ref-ad-stats-common-icon" transform="translate(1477 226)">
            <path id="Tracciato_2397" data-name="Tracciato 2397" d="M.977,0l.979.973L0,2.929" transform="translate(163.135 629.061) rotate(90)" fill="none" stroke="#fff" stroke-linecap="round" stroke-linejoin="bevel" stroke-width="1"/>
            <circle id="Ellisse_68" data-name="Ellisse 68" cx="1.5" cy="1.5" r="1.5" transform="translate(164 627)" fill="#fff"/>
            <path id="Tracciato_2398" data-name="Tracciato 2398" d="M5048.089,477.777l1.719,1.717" transform="translate(-4891.101 148.033)" fill="none" stroke="#fff" stroke-linecap="round" stroke-width="1"/>
            <path id="Tracciato_2399" data-name="Tracciato 2399" d="M5051.82,483.965h6.278" transform="translate(-4893.293 147.673)" fill="none" stroke="#fff" stroke-linecap="round" stroke-width="1"/>
          </g>
          <text id="player-ref-ad-stats-common-text" transform="translate(1649 859)" fill="#fff" font-size="10" font-family="Roboto-Bold, Roboto" font-weight="700"><tspan x="0" y="0">1st &amp; 2nd Serve</tspan></text>
        </g>
      </g>
      <g id="player-ref-ad">
        <g id="player-ref-ad-bg" transform="translate(1584 840)" fill="none" stroke="#019dba" stroke-width="6">
          <circle cx="25" cy="25" r="25" stroke="none"/>
          <circle cx="25" cy="25" r="22" fill="none"/>
        </g>
        <circle id="player-ref-ad-image" cx="19" cy="19" r="19" transform="translate(1590 846)" fill="url(#pattern-2)"/>
      </g>
    </g>
  </g>
</svg>
