<svg xmlns="http://www.w3.org/2000/svg" width="30.823" height="39.437" viewBox="0 0 30.823 39.437">
  <g id="Group_222" data-name="Group 222" transform="translate(0.683 0.5)">
    <path id="Path_2912" data-name="Path 2912" d="M256.464,311.086h-3.3a.505.505,0,0,1-.5-.511c0-.119,0-.244,0-.357,0-4.125-5.821-6.513-5.821-12.336a9.626,9.626,0,0,1,9.626-9.626" transform="translate(-242.102 -277.562)" fill="none" stroke="#707070" stroke-linecap="round" stroke-miterlimit="10" stroke-width="1"/>
    <path id="Path_2913" data-name="Path 2913" d="M253.549,311.086h3.3a.5.5,0,0,0,.5-.511c0-.119,0-.244,0-.357,0-4.125,5.819-6.513,5.819-12.336a9.625,9.625,0,0,0-9.626-9.626" transform="translate(-239.188 -277.562)" fill="none" stroke="#707070" stroke-linecap="round" stroke-miterlimit="10" stroke-width="1"/>
    <line id="Line_33" data-name="Line 33" x2="6.013" transform="translate(11.22 35.313)" fill="#fff" stroke="#707070" stroke-linecap="round" stroke-miterlimit="10" stroke-width="1"/>
    <line id="Line_67" data-name="Line 67" x2="6.013" transform="translate(11.22 36.875)" fill="#fff" stroke="#707070" stroke-linecap="round" stroke-miterlimit="10" stroke-width="1"/>
    <line id="Line_34" data-name="Line 34" x2="4.972" transform="translate(11.741 38.437)" fill="#fff" stroke="#707070" stroke-linecap="round" stroke-miterlimit="10" stroke-width="1"/>
    <path id="Path_2914" data-name="Path 2914" d="M252.1,290.5a7.657,7.657,0,0,1,2.76-.512" transform="translate(-239.817 -276.811)" fill="none" stroke="#707070" stroke-linecap="round" stroke-miterlimit="10" stroke-width="1"/>
    <path id="Path_2915" data-name="Path 2915" d="M0,2.189A7.682,7.682,0,0,1,2.735,0" transform="matrix(0.978, -0.208, 0.208, 0.978, 7.382, 15.661)" fill="none" stroke="#707070" stroke-linecap="round" stroke-miterlimit="10" stroke-width="1"/>
    <path id="Path_2916" data-name="Path 2916" d="M-4368.289,3512.826v7.8" transform="translate(4382.614 -3512.826)" fill="none" stroke="#707070" stroke-linecap="round" stroke-width="1"/>
    <path id="Path_2917" data-name="Path 2917" d="M0,0V4.855" transform="translate(23.291 4.833) rotate(30)" fill="none" stroke="#707070" stroke-linecap="round" stroke-width="1"/>
    <path id="Path_2919" data-name="Path 2919" d="M0,0V4.485" transform="translate(29.456 11.735) rotate(60)" fill="none" stroke="#707070" stroke-linecap="round" stroke-width="1"/>
    <path id="Path_2920" data-name="Path 2920" d="M0,3.639V0" transform="translate(3.151 13.977) rotate(120)" fill="none" stroke="#707070" stroke-linecap="round" stroke-width="1"/>
    <path id="Path_2918" data-name="Path 2918" d="M0,0V5.427" transform="translate(4.771 4.384) rotate(-30)" fill="none" stroke="#707070" stroke-linecap="round" stroke-width="1"/>
    <path id="Path_2921" data-name="Path 2921" d="M-4495.319,3573.68" transform="translate(4502.701 -3547.048)" fill="none" stroke="#707070" stroke-width="1"/>
    <path id="Path_2928" data-name="Path 2928" d="M-4497.471,3573.545h8.52" transform="translate(4507.394 -3541.928)" fill="none" stroke="#707070" stroke-width="1"/>
  </g>
</svg>
