<svg xmlns="http://www.w3.org/2000/svg" width="67.038" height="44.553" viewBox="0 0 67.038 44.553">
  <g id="Group_187" data-name="Group 187" transform="translate(0.707 0.707)">
    <path id="Path_2896" data-name="Path 2896" d="M3.515,18.205V.745A.745.745,0,0,0,2.771,0H.744A.745.745,0,0,0,0,.745v17.46" transform="translate(43.109 40.654) rotate(135)" fill="none" stroke="#707070" stroke-miterlimit="10" stroke-width="1"/>
    <path id="Path_2897" data-name="Path 2897" d="M8.074,0C3.615,0,0,4.756,0,10.622S3.615,21.244,8.074,21.244" transform="translate(30.148 18.849) rotate(135)" fill="none" stroke="#707070" stroke-miterlimit="10" stroke-width="1"/>
    <path id="Path_2898" data-name="Path 2898" d="M0,0C4.458,0,8.073,4.756,8.073,10.622S4.458,21.244,0,21.244" transform="translate(24.439 24.558) rotate(135)" fill="none" stroke="#707070" stroke-miterlimit="10" stroke-width="1"/>
    <path id="Path_2895" data-name="Path 2895" d="M10.621,31.047h-.036C4.739,31.047,0,25.039,0,17.625,0,12.377,2.349,7.871,5.843,5.637a5.762,5.762,0,0,0,3-5.316A.327.327,0,0,1,9.161,0h2.882a.327.327,0,0,1,.319.321,5.766,5.766,0,0,0,3,5.316C18.855,7.871,21.2,12.377,21.2,17.625,21.2,25.038,16.465,31.047,10.621,31.047Z" transform="translate(36.947 21.954) rotate(135)" fill="none" stroke="#707070" stroke-miterlimit="10" stroke-width="1"/>
    <g id="Group_184" data-name="Group 184" transform="translate(22.515 0)">
      <path id="Path_2892" data-name="Path 2892" d="M3.515,0V17.46a.745.745,0,0,1-.744.745H.744A.745.745,0,0,1,0,17.46V0" transform="translate(12.873 27.781) rotate(45)" fill="none" stroke="#707070" stroke-miterlimit="10" stroke-width="1"/>
      <path id="Path_2893" data-name="Path 2893" d="M8.074,21.244C3.615,21.244,0,16.488,0,10.622S3.615,0,8.074,0" transform="translate(27.982 3.827) rotate(45)" fill="none" stroke="#707070" stroke-miterlimit="10" stroke-width="1"/>
      <path id="Path_2894" data-name="Path 2894" d="M0,21.244c4.458,0,8.073-4.756,8.073-10.622S4.458,0,0,0" transform="translate(33.691 9.536) rotate(45)" fill="none" stroke="#707070" stroke-miterlimit="10" stroke-width="1"/>
      <path id="Path_2891" data-name="Path 2891" d="M10.621,0h-.036C4.739,0,0,6.009,0,13.422c0,5.248,2.349,9.754,5.843,11.988a5.762,5.762,0,0,1,3,5.316.327.327,0,0,0,.319.321h2.882a.327.327,0,0,0,.319-.321,5.766,5.766,0,0,1,3-5.316c3.493-2.234,5.843-6.739,5.843-11.988C21.2,6.009,16.466,0,10.621,0Z" transform="translate(28.116 0) rotate(45)" fill="none" stroke="#707070" stroke-miterlimit="10" stroke-width="1"/>
      <line id="Line_31" data-name="Line 31" x2="3.604" transform="translate(10.664 29.989) rotate(45)" fill="none" stroke="#707070" stroke-miterlimit="10" stroke-width="1"/>
    </g>
    <line id="Line_32" data-name="Line 32" x2="3.604" transform="translate(32.444 29.989) rotate(135)" fill="none" stroke="#707070" stroke-miterlimit="10" stroke-width="1"/>
  </g>
</svg>
