<svg xmlns="http://www.w3.org/2000/svg" width="36" height="34" viewBox="0 0 36 34">
  <g id="Group_190" data-name="Group 190" transform="translate(-0.268 -0.195)">
    <g id="Rectangle_265" data-name="Rectangle 265" transform="translate(0.268 0.195)" fill="none" stroke="#707070" stroke-width="1">
      <rect width="36" height="34" rx="3" stroke="none"/>
      <rect x="0.5" y="0.5" width="35" height="33" rx="2.5" fill="none"/>
    </g>
    <path id="Path_2899" data-name="Path 2899" d="M-4151.7,3438.931h13.962" transform="translate(4167.492 -3431.512)" fill="none" stroke="#707070" stroke-width="1"/>
    <path id="Path_2902" data-name="Path 2902" d="M-4151.7,3438.931h12.61" transform="translate(4168.844 -3427.76)" fill="none" stroke="#707070" stroke-width="1"/>
    <path id="Path_2903" data-name="Path 2903" d="M-4151.7,3438.931h11.868" transform="translate(4169.586 -3424.008)" fill="none" stroke="#707070" stroke-width="1"/>
    <path id="Path_2904" data-name="Path 2904" d="M-4151.7,3438.931h23.561" transform="translate(4157.893 -3420.255)" fill="none" stroke="#707070" stroke-width="1"/>
    <path id="Path_2905" data-name="Path 2905" d="M-4151.7,3438.931h23.561" transform="translate(4157.893 -3416.503)" fill="none" stroke="#707070" stroke-width="1"/>
    <path id="Path_2906" data-name="Path 2906" d="M-4151.7,3438.931h23.561" transform="translate(4157.893 -3412.75)" fill="none" stroke="#707070" stroke-width="1"/>
    <path id="Path_2901" data-name="Path 2901" d="M0,0H4.555" transform="matrix(1, 0.017, -0.017, 1, 8.915, 12.188)" fill="none" stroke="#707070" stroke-width="1"/>
    <path id="Path_2900" data-name="Path 2900" d="M-4165.876,3445.761l4.082-8.746,3.526,8.746" transform="translate(4173.126 -3430.427)" fill="none" stroke="#707070" stroke-linecap="round" stroke-linejoin="round" stroke-width="1"/>
  </g>
</svg>
