<svg xmlns="http://www.w3.org/2000/svg" width="49.91" height="24.774" viewBox="0 0 49.91 24.774">
  <g id="Group_224" data-name="Group 224" transform="translate(0.506 0.5)">
    <g id="Group_223" data-name="Group 223" transform="translate(0 0)">
      <path id="Path_2929" data-name="Path 2929" d="M148.552,53.805l2.659,5.387a.332.332,0,0,0,.251.182l5.946.864a.334.334,0,0,1,.184.571L153.291,65a.334.334,0,0,0-.1.3l1.016,5.921a.333.333,0,0,1-.484.352l-5.317-2.8a.334.334,0,0,0-.311,0l-5.319,2.8a.334.334,0,0,1-.484-.352l1.016-5.921a.334.334,0,0,0-.1-.3l-4.3-4.193a.334.334,0,0,1,.184-.571l5.946-.864a.332.332,0,0,0,.251-.182l2.659-5.387A.333.333,0,0,1,148.552,53.805Z" transform="translate(-123.179 -53.618)" fill="none" stroke="#707070" stroke-miterlimit="10" stroke-width="1"/>
      <path id="Path_2930" data-name="Path 2930" d="M145.323,53.743l1.778,3.6a.222.222,0,0,0,.168.122l3.975.578a.223.223,0,0,1,.123.382l-2.875,2.8a.223.223,0,0,0-.065.2l.679,3.958a.223.223,0,0,1-.324.235l-3.555-1.869a.223.223,0,0,0-.208,0l-3.556,1.869a.223.223,0,0,1-.324-.235l.679-3.958a.223.223,0,0,0-.065-.2l-2.875-2.8a.223.223,0,0,1,.123-.382l3.975-.578a.222.222,0,0,0,.168-.122l1.778-3.6A.223.223,0,0,1,145.323,53.743Z" transform="translate(-138.811 -41.881)" fill="none" stroke="#707070" stroke-miterlimit="10" stroke-width="1"/>
      <path id="Path_2931" data-name="Path 2931" d="M145.323,53.743l1.778,3.6a.222.222,0,0,0,.168.122l3.975.578a.223.223,0,0,1,.123.382l-2.875,2.8a.223.223,0,0,0-.065.2l.679,3.958a.223.223,0,0,1-.324.235l-3.555-1.869a.223.223,0,0,0-.208,0l-3.556,1.869a.223.223,0,0,1-.324-.235l.679-3.958a.223.223,0,0,0-.065-.2l-2.875-2.8a.223.223,0,0,1,.123-.382l3.975-.578a.222.222,0,0,0,.168-.122l1.778-3.6A.223.223,0,0,1,145.323,53.743Z" transform="translate(-102.538 -41.881)" fill="none" stroke="#707070" stroke-miterlimit="10" stroke-width="1"/>
    </g>
  </g>
</svg>
